<svg width="268" height="244" viewBox="0 0 268 244" fill="none" xmlns="http://www.w3.org/2000/svg">
<path d="M0 166.869L0.327537 141.159L133.791 218.207L133.545 243.999L0 166.869Z" fill="#3F2B20"/>
<path d="M133.545 243.999L133.791 218.207L267.336 141.159L267.008 166.869L133.545 243.999Z" fill="#895F47"/>
<path d="M133.791 218.208L267.336 141.16L133.791 64.1113L0.328125 141.16L133.791 218.208Z" fill="#5E412F"/>
<path d="M0.327537 141.159L0 115.449L133.545 192.498L133.791 218.208L0.327537 141.159Z" fill="#909A3A"/>
<path d="M133.791 218.208L133.545 192.498L267.008 115.449L267.336 141.159L133.791 218.208Z" fill="#BEC65C"/>
<path d="M133.545 38.3193L267.008 115.45L133.545 192.498L0 115.45L133.545 38.3193Z" fill="#D3DF7B"/>
<path d="M178.006 115.531L200.277 102.676L200.031 128.386L178.006 115.531Z" fill="#77A037"/>
<path d="M200.031 128.386L200.277 102.676L222.466 115.449L200.031 128.386Z" fill="#ACE256"/>
<path opacity="0.3" d="M133.464 166.87L94.8984 154.097L125.358 136.329L155.898 153.933L133.464 166.87Z" fill="#231F20"/>
<path d="M111.273 154.097L111.601 128.305L133.708 141.16L133.463 166.87L111.273 154.097Z" fill="#77A037"/>
<path d="M133.463 166.87L155.898 153.933V128.305L133.709 141.16L133.463 166.87Z" fill="#8DC63F"/>
<path d="M133.709 115.532L155.898 128.305L133.709 141.16L111.602 128.305L133.709 115.532Z" fill="#ACE256"/>
<path opacity="0.2" d="M111.52 77.0486L133.873 64.2754L156.062 76.9667L133.627 89.8217L111.52 77.0486Z" fill="#231F20"/>
<path d="M135.988 25.726L132.713 25.708L132.431 77.0463L135.706 77.0643L135.988 25.726Z" fill="#3F2B20"/>
<path d="M112.092 38.4832L133.954 0L134.281 51.2564L112.092 38.4832Z" fill="#77A037"/>
<path d="M134.281 51.2564L156.388 38.4832L133.953 0L134.281 51.2564Z" fill="#ACE256"/>
<path opacity="0.2" d="M44.625 115.614L66.9781 102.841L89.0854 115.532L66.6505 128.387L44.625 115.614Z" fill="#231F20"/>
<path d="M68.7654 64.2919L65.4902 64.2739L65.2079 115.612L68.4831 115.63L68.7654 64.2919Z" fill="#3C2415"/>
<path d="M44.9527 77.0488L44.707 51.2568L67.1419 64.2756V89.8219L44.9527 77.0488Z" fill="#77A037"/>
<path d="M67.1426 89.8217V64.2754L89.3319 51.4204L89.25 77.0486L67.1426 89.8217Z" fill="#8DC63F"/>
<path d="M44.707 51.2566L66.8144 38.4834L89.3312 51.4204L67.1419 64.2753L44.707 51.2566Z" fill="#ACE256"/>
</svg>
