<svg width="633" height="406" viewBox="0 0 633 406" fill="none" xmlns="http://www.w3.org/2000/svg">
<path d="M421.381 223.811L421.639 203.517L526.985 264.333L526.791 284.691L421.381 223.811Z" fill="#3F2B20"/>
<path d="M526.791 284.691L526.985 264.333L632.395 203.517L632.136 223.811L526.791 284.691Z" fill="#895F47"/>
<path d="M526.984 264.333L632.394 203.517L526.984 142.701L421.639 203.517L526.984 264.333Z" fill="#5E412F"/>
<path d="M421.639 203.517L421.381 183.224L526.791 244.04L526.985 264.333L421.639 203.517Z" fill="#909A3A"/>
<path d="M526.985 264.333L526.791 244.04L632.136 183.224L632.395 203.517L526.985 264.333Z" fill="#BEC65C"/>
<path d="M526.791 122.343L632.136 183.224L526.791 244.04L421.381 183.224L526.791 122.343Z" fill="#D3DF7B"/>
<path opacity="0.3" d="M526.79 223.811L491.761 223.746L421.639 183.353L474.182 152.719L561.948 203.517L526.79 223.811Z" fill="#231F20"/>
<path d="M526.791 223.811L456.604 183.353V122.472L526.791 162.995V223.811Z" fill="#D3C6A1"/>
<path d="M597.172 183.224L526.791 223.811V162.995L596.978 122.472L597.172 183.224Z" fill="#FCEBB6"/>
<path d="M596.978 122.472L526.791 81.9497L456.604 122.472L526.791 162.995L596.978 122.472Z" fill="#FFF3D2"/>
<path d="M544.499 213.599L544.24 173.142L579.592 152.719L579.463 193.435L544.499 213.599Z" fill="#50535B"/>
<path d="M546.245 210.562L546.051 174.176L577.784 155.756L577.719 192.401L546.245 210.562Z" fill="#DADBDF"/>
<path d="M561.432 203.84L561.303 163.318L562.595 162.542V203.13L561.432 203.84Z" fill="#50535B"/>
<path d="M491.762 183.224L491.697 162.93L509.341 173.077V193.306L491.762 183.224Z" fill="#50535B"/>
<path d="M492.666 182.707L492.537 168.359L508.436 177.472V191.819L492.666 182.707Z" fill="#7ECECA"/>
<path d="M526.726 162.994L456.539 122.472V81.8203L526.726 122.343V162.994Z" fill="#D3C6A1"/>
<path d="M597.172 122.343L526.727 162.994V122.343L596.978 81.8203L597.172 122.343Z" fill="#FCEBB6"/>
<path d="M596.978 81.8203L526.791 41.2979L456.539 81.8203L526.726 122.343L596.978 81.8203Z" fill="#FFF3D2"/>
<path d="M509.277 152.912V132.425L491.827 122.343L491.568 142.701L509.277 152.912Z" fill="#50535B"/>
<path d="M508.371 151.361V136.82L492.667 127.771L492.473 142.184L508.371 151.361Z" fill="#7ECECA"/>
<path d="M561.949 142.701V122.472L579.464 112.39V132.554L561.949 142.701Z" fill="#50535B"/>
<path d="M562.854 141.15V126.867L578.558 117.754V132.102L562.854 141.15Z" fill="#C7EDE8"/>
<path d="M526.726 122.343L456.539 81.8207V41.1689L526.726 81.6914V122.343Z" fill="#D3C6A1"/>
<path d="M597.172 81.6914L526.727 122.343V81.6914L596.978 41.1689L597.172 81.6914Z" fill="#FCEBB6"/>
<path d="M596.978 41.1689L526.791 0.646484L456.539 41.1689L526.726 81.6914L596.978 41.1689Z" fill="#FFF3D2"/>
<path d="M509.277 112.261V91.7736L491.827 81.6914L491.568 102.05L509.277 112.261Z" fill="#50535B"/>
<path d="M508.371 110.71V96.1682L492.667 87.1201L492.473 101.532L508.371 110.71Z" fill="#7ECECA"/>
<path d="M561.949 102.05V81.8209L579.464 71.7388V91.903L561.949 102.05Z" fill="#50535B"/>
<path d="M562.854 100.499V86.2157L578.558 77.103V91.3861L562.854 100.499Z" fill="#C7EDE8"/>
<path d="M491.762 41.2981V21.1338L526.791 41.2981V61.527L491.762 41.2981Z" fill="#D3C6A1"/>
<path d="M561.949 41.298V34.0596L526.791 41.298V61.5269L561.949 41.298Z" fill="#FCEBB6"/>
<path d="M526.791 13.5723L561.949 34.0597L526.791 41.2981L491.762 21.1339L526.791 13.5723Z" fill="#FFF9E9"/>
<path d="M210.691 223.616L210.95 203.323L316.295 264.139L316.101 284.497L210.691 223.616Z" fill="#3F2B20"/>
<path d="M316.102 284.497L316.295 264.139L421.706 203.323L421.447 223.616L316.102 284.497Z" fill="#895F47"/>
<path d="M316.295 264.139L421.705 203.323L316.295 142.507L210.949 203.323L316.295 264.139Z" fill="#5E412F"/>
<path d="M210.95 203.323L210.691 182.965L316.101 243.845L316.295 264.139L210.95 203.323Z" fill="#909A3A"/>
<path d="M316.295 264.139L316.102 243.845L421.447 183.029L421.706 203.323L316.295 264.139Z" fill="#BEC65C"/>
<path d="M316.101 122.149L421.447 183.03L316.101 243.845L210.691 182.965L316.101 122.149Z" fill="#D3DF7B"/>
<path d="M351.259 223.487L316.101 203.193L281.137 223.681L245.914 203.323L316.101 162.8L386.289 203.323L351.259 223.487Z" fill="#DADBDF"/>
<path d="M362.916 209.37L357.744 206.308L357.086 207.42L362.258 210.483L362.916 209.37Z" fill="#50535B"/>
<path d="M345.469 199.26L340.297 196.197L339.638 197.31L344.81 200.372L345.469 199.26Z" fill="#50535B"/>
<path d="M327.75 189.176L322.578 186.114L321.92 187.226L327.092 190.288L327.75 189.176Z" fill="#50535B"/>
<path d="M275.107 207.424L274.463 206.304L269.196 209.331L269.84 210.452L275.107 207.424Z" fill="#50535B"/>
<path d="M292.822 197.282L292.178 196.162L286.911 199.188L287.555 200.309L292.822 197.282Z" fill="#50535B"/>
<path d="M310.277 187.156L309.633 186.036L304.366 189.062L305.01 190.183L310.277 187.156Z" fill="#50535B"/>
<path d="M282.364 224.392L279.844 222.905L316.101 201.707L352.551 222.776L349.966 224.263L316.101 204.68L282.364 224.392Z" fill="#50535B"/>
<path d="M384.996 204.098L316.101 164.287L247.206 204.098L244.621 202.612L316.101 161.314L387.581 202.547L384.996 204.098Z" fill="#50535B"/>
<path d="M105.346 284.368L105.604 264.074L210.95 324.89L210.756 345.248L105.346 284.368Z" fill="#3F2B20"/>
<path d="M210.756 345.248L210.95 324.89L316.36 264.074L316.101 284.368L210.756 345.248Z" fill="#895F47"/>
<path d="M210.949 324.89L316.359 264.074L210.949 203.258L105.604 264.074L210.949 324.89Z" fill="#5E412F"/>
<path d="M105.604 264.074L105.346 243.781L210.756 304.597L210.95 324.89L105.604 264.074Z" fill="#909A3A"/>
<path d="M210.95 324.89L210.756 304.597L316.101 243.781L316.36 264.074L210.95 324.89Z" fill="#BEC65C"/>
<path d="M210.756 182.9L316.101 243.781L210.756 304.597L105.346 243.781L210.756 182.9Z" fill="#D3DF7B"/>
<path d="M245.914 284.239L210.756 263.945L175.727 284.368L140.568 264.074L245.914 203.258L280.943 223.423L245.849 243.845L280.943 264.074L245.914 284.239Z" fill="#DADBDF"/>
<path d="M169.763 268.178L169.119 267.058L163.852 270.085L164.496 271.206L169.763 268.178Z" fill="#50535B"/>
<path d="M187.474 258.054L186.83 256.933L181.563 259.96L182.207 261.08L187.474 258.054Z" fill="#50535B"/>
<path d="M204.929 247.927L204.285 246.807L199.018 249.833L199.662 250.954L204.929 247.927Z" fill="#50535B"/>
<path d="M222.41 237.766L221.766 236.646L216.498 239.673L217.143 240.793L222.41 237.766Z" fill="#50535B"/>
<path d="M240.191 227.657L239.547 226.537L234.28 229.564L234.924 230.685L240.191 227.657Z" fill="#50535B"/>
<path d="M257.648 217.575L257.004 216.454L251.737 219.481L252.381 220.602L257.648 217.575Z" fill="#50535B"/>
<path d="M257.58 270.11L252.408 267.048L251.75 268.16L256.922 271.222L257.58 270.11Z" fill="#50535B"/>
<path d="M240.106 260.008L234.934 256.946L234.275 258.058L239.447 261.12L240.106 260.008Z" fill="#50535B"/>
<path d="M177.019 285.144L174.498 283.657L210.755 262.459L247.27 283.528L244.621 285.015L210.755 265.432L177.019 285.144Z" fill="#50535B"/>
<path d="M141.861 264.85L139.275 263.299L244.621 202.483L247.206 203.969L141.861 264.85Z" fill="#50535B"/>
<path d="M279.65 264.85L243.264 243.846L279.65 222.712L282.17 224.198L248.434 243.781L282.17 263.364L279.65 264.85Z" fill="#50535B"/>
<path d="M316.035 284.368L316.294 264.074L421.639 324.89L421.445 345.248L316.035 284.368Z" fill="#3F2B20"/>
<path d="M421.445 345.248L421.639 324.89L527.049 264.074L526.791 284.368L421.445 345.248Z" fill="#895F47"/>
<path d="M421.638 324.89L527.049 264.074L421.638 203.258L316.293 264.074L421.638 324.89Z" fill="#5E412F"/>
<path d="M316.294 264.074L316.035 243.716L421.445 304.597L421.639 324.89L316.294 264.074Z" fill="#909A3A"/>
<path d="M421.639 324.89L421.445 304.597L526.791 243.781L527.049 264.074L421.639 324.89Z" fill="#BEC65C"/>
<path d="M421.445 182.9L526.791 243.781L421.445 304.597L316.035 243.716L421.445 182.9Z" fill="#D3DF7B"/>
<path d="M351.258 223.423L421.445 263.945L491.697 223.487L456.603 203.258L421.639 223.423L386.222 203.258L351.258 223.423Z" fill="#DADBDF"/>
<path d="M415.628 239.635L410.457 236.572L409.798 237.684L414.97 240.747L415.628 239.635Z" fill="#50535B"/>
<path d="M397.467 230.661L392.297 227.624L392.943 226.525L398.113 229.562L397.467 230.661Z" fill="#50535B"/>
<path d="M379.758 220.579L374.588 217.542L375.234 216.443L380.405 219.48L379.758 220.579Z" fill="#50535B"/>
<path d="M433.117 237.841L432.473 236.72L427.206 239.748L427.85 240.869L433.117 237.841Z" fill="#50535B"/>
<path d="M450.869 227.72L450.225 226.599L444.957 229.627L445.602 230.748L450.869 227.72Z" fill="#50535B"/>
<path d="M468.357 217.65L467.713 216.529L462.446 219.557L463.09 220.678L468.357 217.65Z" fill="#50535B"/>
<path d="M421.639 224.909L384.93 203.969L387.515 202.483L421.639 221.936L455.311 202.483L457.896 203.969L421.639 224.909Z" fill="#50535B"/>
<path d="M421.445 265.432L349.965 224.198L352.55 222.712L421.445 262.459L490.404 222.712L492.989 224.198L421.445 265.432Z" fill="#50535B"/>
<path d="M210.691 345.12L210.95 324.826L316.295 385.642L316.102 406L210.691 345.12Z" fill="#3F2B20"/>
<path d="M316.102 406L316.295 385.642L421.706 324.826L421.447 345.12L316.102 406Z" fill="#895F47"/>
<path d="M316.295 385.642L421.705 324.826L316.295 264.01L210.949 324.826L316.295 385.642Z" fill="#5E412F"/>
<path d="M210.95 324.826L210.691 304.468L316.102 365.349L316.295 385.642L210.95 324.826Z" fill="#909A3A"/>
<path d="M316.295 385.642L316.102 365.349L421.447 304.533L421.706 324.826L316.295 385.642Z" fill="#BEC65C"/>
<path d="M316.101 243.652L421.447 304.532L316.101 365.348L210.691 304.468L316.101 243.652Z" fill="#D3DF7B"/>
<path d="M351.259 344.99L386.288 324.826L280.878 264.01L245.914 284.175L351.259 344.99Z" fill="#DADBDF"/>
<path d="M362.912 330.868L357.74 327.806L357.082 328.918L362.254 331.98L362.912 330.868Z" fill="#50535B"/>
<path d="M345.459 320.779L340.287 317.716L339.629 318.829L344.801 321.891L345.459 320.779Z" fill="#50535B"/>
<path d="M327.735 310.694L322.562 307.632L321.904 308.744L327.076 311.806L327.735 310.694Z" fill="#50535B"/>
<path d="M310.283 300.443L305.111 297.38L304.453 298.493L309.625 301.555L310.283 300.443Z" fill="#50535B"/>
<path d="M292.797 290.29L287.625 287.228L286.967 288.34L292.139 291.402L292.797 290.29Z" fill="#50535B"/>
<path d="M274.99 280.252L269.818 277.19L269.16 278.302L274.332 281.365L274.99 280.252Z" fill="#50535B"/>
<path d="M384.996 325.601L279.586 264.721L282.171 263.234L387.517 324.115L384.996 325.601Z" fill="#50535B"/>
<path d="M349.967 345.766L244.621 284.95L247.206 283.463L352.616 344.279L349.967 345.766Z" fill="#50535B"/>
<path d="M0 344.732L0.258532 324.438L105.604 385.254L105.41 405.612L0 344.732Z" fill="#3F2B20"/>
<path d="M105.41 405.612L105.604 385.254L211.014 324.438L210.756 344.732L105.41 405.612Z" fill="#895F47"/>
<path d="M105.603 385.254L211.013 324.438L105.603 263.622L0.257812 324.438L105.603 385.254Z" fill="#5E412F"/>
<path d="M0.258532 324.438L0 304.145L105.41 364.961L105.604 385.254L0.258532 324.438Z" fill="#909A3A"/>
<path d="M105.604 385.254L105.41 364.961L210.756 304.145L211.014 324.438L105.604 385.254Z" fill="#BEC65C"/>
<path d="M105.41 243.264L210.755 304.145L105.41 364.961L0 304.145L105.41 243.264Z" fill="#D3DF7B"/>
<path opacity="0.3" d="M105.409 344.732L70.3804 344.667L0.257812 304.274L52.8013 273.64L140.568 324.438L105.409 344.732Z" fill="#231F20"/>
<path d="M105.41 344.731L35.2227 304.273V40.6514L105.41 81.1738V344.731Z" fill="#D3C6A1"/>
<path d="M175.791 304.145L105.41 344.732V81.1742L175.791 40.5225V304.145Z" fill="#FCEBB6"/>
<path d="M175.791 40.5224L105.604 0L35.2227 40.6517L105.41 81.1742L175.791 40.5224Z" fill="#FFF3D2"/>
<path d="M123.118 334.52L122.859 293.998L158.082 273.704V314.356L123.118 334.52Z" fill="#50535B"/>
<path d="M124.862 331.483L124.668 295.097L156.401 276.677L156.336 313.322L124.862 331.483Z" fill="#DADBDF"/>
<path d="M141.214 324.05L139.922 324.826V284.174L141.214 283.398V324.05Z" fill="#50535B"/>
<path d="M122.859 273.575L123.118 253.475L158.082 233.311V253.411L122.859 273.575Z" fill="#50535B"/>
<path d="M122.859 270.99L123.118 256.06L158.082 235.896V250.825L122.859 270.99Z" fill="#C7EDE8"/>
<path d="M122.859 233.505L123.118 213.405L158.082 193.241V213.341L122.859 233.505Z" fill="#50535B"/>
<path d="M122.859 230.92L123.118 215.99L158.082 195.826V210.755L122.859 230.92Z" fill="#C7EDE8"/>
<path d="M122.859 192.142L123.118 172.043L158.082 151.878V171.978L122.859 192.142Z" fill="#50535B"/>
<path d="M122.859 189.557L123.118 174.628L158.082 154.463V169.393L122.859 189.557Z" fill="#C7EDE8"/>
<path d="M122.859 152.072L123.118 131.972L158.082 111.808V131.908L122.859 152.072Z" fill="#50535B"/>
<path d="M122.859 149.487L123.118 134.557L158.082 114.393V129.322L122.859 149.487Z" fill="#C7EDE8"/>
<path d="M122.859 112.002L123.118 91.9026L158.082 71.7383V91.8379L122.859 112.002Z" fill="#50535B"/>
<path d="M122.859 109.417L123.118 94.4875L158.082 74.3232V89.2526L122.859 109.417Z" fill="#C7EDE8"/>
<path d="M87.4424 273.575L52.8012 253.411L52.6719 233.053L87.8947 253.476L87.4424 273.575Z" fill="#50535B"/>
<path d="M87.4424 270.99L52.8012 250.826L52.6719 235.638L87.8947 256.061L87.4424 270.99Z" fill="#7ECECA"/>
<path d="M87.4424 233.505L52.8012 213.341L52.6719 192.983L87.8947 213.406L87.4424 233.505Z" fill="#50535B"/>
<path d="M87.4424 230.92L52.8012 210.756L52.6719 195.568L87.8947 215.991L87.4424 230.92Z" fill="#7ECECA"/>
<path d="M87.4424 192.143L52.8012 171.978L52.6719 151.62L87.8947 172.043L87.4424 192.143Z" fill="#50535B"/>
<path d="M87.4424 189.558L52.8012 169.393L52.6719 154.206L87.8947 174.628L87.4424 189.558Z" fill="#7ECECA"/>
<path d="M87.4424 152.073L52.8012 131.908L52.6719 111.55L87.8947 131.973L87.4424 152.073Z" fill="#50535B"/>
<path d="M87.4424 149.488L52.8012 129.324L52.6719 114.136L87.8947 134.559L87.4424 149.488Z" fill="#7ECECA"/>
<path d="M87.4424 112.002L52.8012 91.8381L52.6719 71.48L87.8947 91.9028L87.4424 112.002Z" fill="#50535B"/>
<path d="M87.4424 109.418L52.8012 89.2533L52.6719 74.0654L87.8947 94.4882L87.4424 109.418Z" fill="#7ECECA"/>
<path d="M70.3809 40.5223L70.5101 33.2192L105.41 53.5774L105.604 60.8805L70.3809 40.5223Z" fill="#D3C6A1"/>
<path d="M105.604 60.8807L105.41 53.5776L140.568 33.1548L140.827 40.5225L105.604 60.8807Z" fill="#FCEBB6"/>
<path d="M105.603 12.9258L70.5098 33.2193L105.409 53.5775L140.568 33.1547L105.603 12.9258Z" fill="#FFF9E9"/>
<path d="M105.604 24.2358L125.639 35.7398L105.41 47.5023L85.5039 35.8691L105.604 24.2358Z" fill="#1693A5"/>
<path d="M105.604 24.2358L105.539 19.0654L81.0449 33.2192L85.5043 35.869L105.604 24.2358Z" fill="#A0DED6"/>
<path d="M130.098 33.2192L125.703 35.8044L105.604 24.2358L105.539 19.0654L130.098 33.2192Z" fill="#45B5C4"/>
<path opacity="0.5" d="M105.604 19.0654L81.0449 33.2192L105.41 47.5022L130.098 33.2192L105.604 19.0654Z" fill="#C7EDE8"/>
</svg>
