<svg width="564" height="358" viewBox="0 0 564 358" fill="none" xmlns="http://www.w3.org/2000/svg">
<path d="M337.789 162.872L338.066 141.137L450.893 206.272L450.685 228.076L337.789 162.872Z" fill="#3F2B20"/>
<path d="M450.686 228.076L450.893 206.272L563.789 141.137L563.512 162.872L450.686 228.076Z" fill="#895F47"/>
<path d="M450.893 206.272L563.789 141.137L450.893 76.0024L338.066 141.137L450.893 206.272Z" fill="#5E412F"/>
<path d="M338.066 141.137L337.789 119.402L450.685 184.537L450.893 206.272L338.066 141.137Z" fill="#909A3A"/>
<path d="M450.893 206.272L450.686 184.537L563.512 119.402L563.789 141.137L450.893 206.272Z" fill="#BEC65C"/>
<path d="M450.685 54.1982L563.512 119.402L450.685 184.537L337.789 119.402L450.685 54.1982Z" fill="#D3DF7B"/>
<path opacity="0.3" d="M450.685 162.872L413.169 162.803L338.066 119.541L394.341 86.7314L488.341 141.137L450.685 162.872Z" fill="#231F20"/>
<path d="M450.685 162.872L375.514 119.541V54.3369L450.685 97.7372V162.872Z" fill="#D3C6A1"/>
<path d="M526.065 119.403L450.686 162.872V97.7372L525.857 54.3369L526.065 119.403Z" fill="#FFF3D2"/>
<path d="M525.857 54.3367L450.685 10.9365L375.514 54.3367L450.685 97.737L525.857 54.3367Z" fill="#FFF9E9"/>
<path d="M469.65 151.936L469.373 108.605L488.339 97.7373V141.138L469.65 151.936Z" fill="#50535B"/>
<path d="M472.211 113.035L485.501 105.421V115.112L472.419 122.726L472.211 113.035Z" fill="#323438"/>
<path d="M472.211 131.032L485.501 123.417V133.108L472.419 140.722L472.211 131.032Z" fill="#323438"/>
<path d="M394.34 86.7314L431.787 108.605L431.925 130.201L394.201 108.397L394.34 86.7314Z" fill="#50535B"/>
<path d="M397.108 91.5767L411.99 100.367V115.388L397.039 106.805L397.108 91.5767Z" fill="#7ECECA"/>
<path d="M413.582 101.267L413.721 116.426L429.087 125.355L429.018 110.266L413.582 101.267Z" fill="#7ECECA"/>
<path d="M499.137 113.311L498.791 91.5075L517.549 80.6401V102.306L499.137 113.311Z" fill="#50535B"/>
<path d="M501.768 108.674L501.422 93.7223L515.266 86.0391V100.783L501.768 108.674Z" fill="#C7EDE8"/>
<path opacity="0.2" d="M375.514 54.3369V68.8037L450.685 110.958L526.065 67.0732L525.857 54.3369L450.685 97.7372L375.514 54.3369Z" fill="#231F20"/>
<path d="M450.684 107.428L431.926 0L538.315 55.7212L450.684 107.428Z" fill="#895F47"/>
<path d="M450.684 4.01469L431.926 0L538.315 55.7212L450.684 4.01469Z" fill="#5E412F"/>
<path d="M450.685 107.428L431.926 0L358.9 55.7212L450.685 107.428Z" fill="#5E412F"/>
<path d="M225.654 227.591L225.931 205.856L338.758 270.991L338.55 292.795L225.654 227.591Z" fill="#3F2B20"/>
<path d="M338.551 292.795L338.758 270.991L451.654 205.856L451.378 227.591L338.551 292.795Z" fill="#895F47"/>
<path d="M338.758 270.992L451.654 205.857L338.758 140.722L225.932 205.857L338.758 270.992Z" fill="#5E412F"/>
<path d="M225.931 205.857L225.654 184.122L338.55 249.257L338.758 270.992L225.931 205.857Z" fill="#909A3A"/>
<path d="M338.758 270.992L338.551 249.257L451.378 184.122L451.654 205.857L338.758 270.992Z" fill="#BEC65C"/>
<path d="M338.55 118.918L451.377 184.122L338.55 249.257L225.654 184.122L338.55 118.918Z" fill="#D3DF7B"/>
<path d="M376.137 184.191L394.964 173.324L394.757 195.058L376.137 184.191Z" fill="#77A037"/>
<path d="M394.756 195.058L394.964 173.324L413.722 184.122L394.756 195.058Z" fill="#ACE256"/>
<path opacity="0.3" d="M338.481 227.592L305.879 216.793L331.628 201.773L357.447 216.655L338.481 227.592Z" fill="#231F20"/>
<path d="M319.723 216.793L320 194.989L338.689 205.857L338.481 227.591L319.723 216.793Z" fill="#77A037"/>
<path d="M338.48 227.591L357.446 216.655V194.989L338.688 205.857L338.48 227.591Z" fill="#8DC63F"/>
<path d="M338.689 184.191L357.447 194.99L338.689 205.857L320 194.99L338.689 184.191Z" fill="#ACE256"/>
<path opacity="0.2" d="M319.93 151.659L338.826 140.86L357.585 151.589L338.619 162.457L319.93 151.659Z" fill="#231F20"/>
<path d="M340.614 108.272L337.846 108.257L337.607 151.657L340.376 151.672L340.614 108.272Z" fill="#3F2B20"/>
<path d="M320.414 119.056L338.896 86.5234L339.172 129.854L320.414 119.056Z" fill="#77A037"/>
<path d="M339.173 129.854L357.862 119.056L338.896 86.5234L339.173 129.854Z" fill="#ACE256"/>
<path opacity="0.2" d="M263.379 184.261L282.276 173.462L300.965 184.191L281.999 195.059L263.379 184.261Z" fill="#231F20"/>
<path d="M283.786 140.874L281.018 140.859L280.779 184.259L283.548 184.274L283.786 140.874Z" fill="#3C2415"/>
<path d="M263.657 151.658L263.449 129.854L282.415 140.86V162.457L263.657 151.658Z" fill="#77A037"/>
<path d="M282.414 162.456V140.86L301.172 129.993L301.103 151.658L282.414 162.456Z" fill="#8DC63F"/>
<path d="M263.449 129.854L282.138 119.056L301.174 129.993L282.415 140.86L263.449 129.854Z" fill="#ACE256"/>
<path d="M0 227.73L0.276892 205.996L113.104 271.131L112.896 292.935L0 227.73Z" fill="#3F2B20"/>
<path d="M112.896 292.935L113.104 271.131L226 205.996L225.723 227.73L112.896 292.935Z" fill="#895F47"/>
<path d="M113.104 271.131L226 205.996L113.104 140.861L0.277344 205.996L113.104 271.131Z" fill="#5E412F"/>
<path opacity="0.7" d="M112.896 119.057L113.104 140.861L0.276892 205.996L0 184.261L112.896 119.057Z" fill="#1693A5"/>
<path opacity="0.7" d="M112.896 119.057L113.104 140.861L226 206.065L225.723 184.261L112.896 119.057Z" fill="#C7EDE8"/>
<path opacity="0.7" d="M0.276892 205.995L0 184.261L112.896 249.396L113.104 271.13L0.276892 205.995Z" fill="#45B5C4"/>
<path opacity="0.7" d="M113.104 271.13L112.896 249.396L225.723 184.261L226 205.995L113.104 271.13Z" fill="#A0DED6"/>
<path opacity="0.7" d="M112.896 119.057L225.723 184.261L112.896 249.396L0 184.261L112.896 119.057Z" fill="#C7EDE8"/>
<path d="M112.826 292.795L113.103 271.061L225.93 336.196L225.722 357.999L112.826 292.795Z" fill="#3F2B20"/>
<path d="M225.723 357.999L225.93 336.196L338.826 271.061L338.549 292.795L225.723 357.999Z" fill="#895F47"/>
<path d="M225.93 336.196L338.826 271.061L225.93 205.926L113.104 271.061L225.93 336.196Z" fill="#5E412F"/>
<path d="M113.103 271.061L112.826 249.326L225.722 314.461L225.93 336.196L113.103 271.061Z" fill="#909A3A"/>
<path d="M225.93 336.196L225.723 314.461L338.549 249.326L338.826 271.061L225.93 336.196Z" fill="#BEC65C"/>
<path d="M225.722 184.122L338.549 249.326L225.722 314.461L112.826 249.326L225.722 184.122Z" fill="#D3DF7B"/>
</svg>
