<svg width="253" height="340" viewBox="0 0 253 340" fill="none" xmlns="http://www.w3.org/2000/svg">
<path d="M0 267.126L0.309461 242.835L126.407 315.631L126.175 340L0 267.126Z" fill="#3F2B20"/>
<path d="M126.176 340L126.408 315.631L252.583 242.835L252.274 267.126L126.176 340Z" fill="#895F47"/>
<path d="M126.406 315.632L252.582 242.835L126.406 170.039L0.308594 242.835L126.406 315.632Z" fill="#5E412F"/>
<path d="M0.309461 242.835L0 218.544L126.175 291.34L126.407 315.632L0.309461 242.835Z" fill="#909A3A"/>
<path d="M126.408 315.632L126.176 291.34L252.274 218.544L252.583 242.835L126.408 315.632Z" fill="#BEC65C"/>
<path d="M126.175 145.67L252.273 218.544L126.175 291.34L0 218.544L126.175 145.67Z" fill="#D3DF7B"/>
<path opacity="0.3" d="M126.174 267.126L84.2449 267.049L0.308594 218.699L63.2028 182.03L168.259 242.835L126.174 267.126Z" fill="#231F20"/>
<path d="M126.176 267.126L42.1621 218.698V145.825L126.176 194.33V267.126Z" fill="#D3C6A1"/>
<path d="M210.422 218.544L126.176 267.126V194.33L210.19 145.825L210.422 218.544Z" fill="#FCEBB6"/>
<path d="M210.189 145.825L126.176 97.3198L42.1621 145.825L126.176 194.33L210.189 145.825Z" fill="#FFF3D2"/>
<path d="M147.372 254.903L147.062 206.476L189.379 182.03L189.224 230.767L147.372 254.903Z" fill="#50535B"/>
<path d="M149.461 251.267L149.229 207.713L187.213 185.666L187.135 229.529L149.461 251.267Z" fill="#DADBDF"/>
<path d="M167.641 243.222L167.486 194.717L169.034 193.789V242.371L167.641 243.222Z" fill="#50535B"/>
<path d="M84.2473 218.544L84.1699 194.252L105.289 206.398V230.612L84.2473 218.544Z" fill="#50535B"/>
<path d="M85.3306 217.925L85.1758 200.75L104.207 211.658V228.832L85.3306 217.925Z" fill="#7ECECA"/>
<path d="M126.098 194.33L42.084 145.825V97.165L126.098 145.67V194.33Z" fill="#D3C6A1"/>
<path d="M210.421 145.67L126.098 194.33V145.67L210.189 97.165L210.421 145.67Z" fill="#FCEBB6"/>
<path d="M210.189 97.1648L126.175 48.6597L42.084 97.1648L126.098 145.67L210.189 97.1648Z" fill="#FFF3D2"/>
<path d="M105.211 182.261V157.738L84.3231 145.67L84.0137 170.039L105.211 182.261Z" fill="#50535B"/>
<path d="M104.128 180.405V162.998L85.3298 152.168L85.0977 169.419L104.128 180.405Z" fill="#7ECECA"/>
<path d="M168.26 170.039V145.825L189.224 133.756V157.893L168.26 170.039Z" fill="#50535B"/>
<path d="M169.344 168.182V151.085L188.142 140.177V157.351L169.344 168.182Z" fill="#C7EDE8"/>
<path d="M126.098 145.67L42.084 97.1647V48.5049L126.098 97.01V145.67Z" fill="#D3C6A1"/>
<path d="M210.421 97.01L126.098 145.67V97.01L210.189 48.5049L210.421 97.01Z" fill="#FCEBB6"/>
<path d="M210.189 48.5051L126.175 0L42.084 48.5051L126.098 97.0102L210.189 48.5051Z" fill="#FFF3D2"/>
<path d="M105.211 133.602V109.079L84.3231 97.0103L84.0137 121.379L105.211 133.602Z" fill="#50535B"/>
<path d="M104.128 131.745V114.339L85.3298 103.508L85.0977 120.76L104.128 131.745Z" fill="#7ECECA"/>
<path d="M168.26 121.379V97.1649L189.224 85.0967V109.233L168.26 121.379Z" fill="#50535B"/>
<path d="M169.344 119.522V102.425L188.142 91.5176V108.614L169.344 119.522Z" fill="#C7EDE8"/>
<path d="M84.2461 48.6595V24.5229L126.176 48.6595V72.8734L84.2461 48.6595Z" fill="#D3C6A1"/>
<path d="M168.26 48.66V39.9956L126.176 48.66V72.8739L168.26 48.66Z" fill="#FCEBB6"/>
<path d="M126.176 15.4722L168.26 39.9955L126.176 48.6599L84.2461 24.5233L126.176 15.4722Z" fill="#FFF9E9"/>
</svg>
