<svg width="1958" height="778" viewBox="0 0 1958 778" fill="none" xmlns="http://www.w3.org/2000/svg">
    <g opacity="0.7">
        <path opacity="0.43" fill-rule="evenodd" clip-rule="evenodd" d="M15.7957 201.441C10.5304 201.441 5.26526 201.441 0 202.099V566.799V718.208H1958V560.216V490.435V157.993C1934.96 147.46 1908.64 141.535 1881.65 141.535C1794.12 141.535 1720.41 203.415 1702.64 286.362C1676.97 256.08 1638.8 236.989 1596.67 236.989C1574.96 236.989 1553.9 242.255 1535.47 251.472C1520.99 165.234 1445.96 99.4037 1355.13 99.4037C1268.26 99.4037 1195.86 159.968 1176.77 240.939C1147.82 209.34 1105.69 189.591 1059.62 189.591C1027.37 189.591 997.757 198.807 972.748 215.265C940.498 91.5041 828.612 0 694.35 0C548.898 0 428.457 107.962 409.37 248.18C381.728 208.024 334.999 181.691 282.347 181.691C225.088 181.691 175.068 212.632 148.084 259.371C115.177 223.165 67.7896 201.441 15.7957 201.441Z" fill="#FFE7AD"/>
        <path fill-rule="evenodd" clip-rule="evenodd" d="M0 525.212V667.406V750.352H1958V625.274V592.359V473.206V352.079C1948.79 342.863 1937.6 335.621 1923.78 331.013C1878.36 315.872 1829.66 340.229 1814.52 385.652C1812.55 392.235 1811.23 398.16 1810.57 404.743C1757.26 392.235 1702.64 419.226 1680.92 468.598C1654.59 438.975 1616.42 420.542 1574.3 420.542C1546.66 420.542 1520.99 428.442 1499.27 441.608C1488.08 406.718 1455.83 381.044 1417 381.044C1410.42 381.044 1403.84 381.702 1397.26 383.019C1391.99 325.088 1343.94 279.665 1284.71 279.665C1237.98 279.665 1197.84 307.972 1180.72 348.129C1155.71 325.747 1122.81 311.922 1087.27 311.922C1069.5 311.922 1052.38 315.214 1036.59 321.139C1031.32 228.318 954.319 153.93 860.204 153.93C784.516 153.93 720.018 201.327 695.008 267.816C669.998 201.327 605.499 153.93 529.812 153.93C446.227 153.93 375.804 211.86 358.034 290.198C325.127 292.173 294.852 305.339 271.816 326.405C254.704 286.249 214.557 257.941 167.829 257.941C108.595 257.941 59.8917 303.364 55.2847 361.295C48.7032 359.978 42.7798 359.32 35.5402 359.32C23.0353 359.32 11.8468 361.953 1.31641 366.561V525.212H0Z" fill="white" fill-opacity="0.88"/>
        <path fill-rule="evenodd" clip-rule="evenodd" d="M1546 538.38H1544.02C1525.59 487.032 1476.89 450.167 1419.63 450.167C1396.6 450.167 1374.88 456.092 1356.45 466.625C1354.48 417.91 1314.33 379.729 1264.97 379.729C1218.24 379.729 1179.41 415.277 1174.14 460.7C1163.61 455.434 1151.76 452.8 1139.26 452.8C1117.54 452.8 1097.8 461.358 1083.32 475.841C1064.23 425.81 1016.19 390.262 959.585 390.262C952.345 390.262 945.105 390.92 938.524 392.236C933.258 261.893 825.98 158.539 695.008 158.539C564.694 158.539 458.731 260.576 451.492 388.945C440.303 385.653 428.456 384.337 416.61 384.337C369.881 384.337 328.417 408.694 305.382 445.559C289.586 433.051 269.842 425.152 248.123 425.152C218.506 425.152 192.18 438.976 175.726 461.358C155.324 430.418 121.1 410.011 81.6106 410.011C50.0194 410.011 21.719 423.177 1.31628 443.584C1.31628 554.837 1.31628 666.749 1.31628 778.002H1958V735.212C1937.6 668.065 1859.94 650.291 1817.81 667.407C1820.45 660.166 1822.42 651.608 1822.42 643.05C1822.42 605.526 1792.15 575.245 1754.63 575.245C1740.15 575.245 1726.99 579.853 1716.46 587.094C1711.19 539.038 1670.39 502.173 1621.68 502.173C1590.75 501.515 1563.77 515.997 1546 538.38Z" fill="#FFEFC9"/>
    </g>
</svg>