<svg width="1958" height="858" viewBox="0 0 1958 858" fill="none" xmlns="http://www.w3.org/2000/svg">
    <g clip-path="url(#clip0_220_4162)">
        <g clip-path="url(#clip1_220_4162)">
            <g opacity="0.7">
                <path opacity="0.43" fill-rule="evenodd" clip-rule="evenodd" d="M15.7956 201.441C10.5304 201.441 5.26526 201.441 4.57764e-05 202.099V566.799V718.208H1958V560.216V490.435V157.993C1934.96 147.46 1908.64 141.535 1881.65 141.535C1794.12 141.535 1720.41 203.415 1702.64 286.362C1676.97 256.08 1638.8 236.989 1596.67 236.989C1574.96 236.989 1553.9 242.255 1535.47 251.472C1520.99 165.234 1445.96 99.4037 1355.13 99.4037C1268.26 99.4037 1195.86 159.968 1176.77 240.939C1147.82 209.34 1105.69 189.591 1059.62 189.591C1027.37 189.591 997.757 198.807 972.748 215.265C940.498 91.5041 828.612 0 694.35 0C548.898 0 428.456 107.962 409.37 248.18C381.728 208.024 334.999 181.691 282.347 181.691C225.088 181.691 175.068 212.632 148.084 259.371C115.177 223.165 67.7896 201.441 15.7956 201.441Z" fill="#FFE7AD"/>
                <path fill-rule="evenodd" clip-rule="evenodd" d="M4.57764e-05 525.212V667.406V750.352H1958V625.274V592.359V473.206V352.079C1948.79 342.863 1937.6 335.621 1923.78 331.013C1878.36 315.872 1829.66 340.229 1814.52 385.652C1812.55 392.235 1811.23 398.16 1810.57 404.743C1757.26 392.235 1702.64 419.226 1680.92 468.598C1654.59 438.975 1616.42 420.542 1574.3 420.542C1546.66 420.542 1520.99 428.442 1499.27 441.608C1488.08 406.718 1455.83 381.044 1417 381.044C1410.42 381.044 1403.84 381.702 1397.26 383.019C1391.99 325.088 1343.94 279.665 1284.71 279.665C1237.98 279.665 1197.84 307.972 1180.72 348.129C1155.71 325.747 1122.81 311.922 1087.27 311.922C1069.5 311.922 1052.38 315.214 1036.59 321.139C1031.32 228.318 954.319 153.93 860.204 153.93C784.516 153.93 720.018 201.327 695.008 267.816C669.998 201.327 605.499 153.93 529.812 153.93C446.227 153.93 375.804 211.86 358.034 290.198C325.127 292.173 294.852 305.339 271.816 326.405C254.704 286.249 214.557 257.941 167.829 257.941C108.595 257.941 59.8918 303.364 55.2847 361.295C48.7032 359.978 42.7798 359.32 35.5402 359.32C23.0353 359.32 11.8468 361.953 1.31643 366.561V525.212H4.57764e-05Z" fill="white" fill-opacity="0.88"/>
                <path fill-rule="evenodd" clip-rule="evenodd" d="M1546 538.38H1544.02C1525.59 487.032 1476.89 450.167 1419.63 450.167C1396.6 450.167 1374.88 456.092 1356.45 466.625C1354.48 417.91 1314.33 379.729 1264.97 379.729C1218.24 379.729 1179.41 415.277 1174.14 460.7C1163.61 455.434 1151.76 452.8 1139.26 452.8C1117.54 452.8 1097.8 461.358 1083.32 475.841C1064.23 425.81 1016.19 390.262 959.585 390.262C952.345 390.262 945.105 390.92 938.524 392.236C933.258 261.893 825.98 158.539 695.008 158.539C564.694 158.539 458.731 260.576 451.492 388.945C440.303 385.653 428.456 384.337 416.61 384.337C369.881 384.337 328.417 408.694 305.382 445.559C289.586 433.051 269.842 425.152 248.123 425.152C218.506 425.152 192.18 438.976 175.726 461.358C155.324 430.418 121.1 410.011 81.6106 410.011C50.0194 410.011 21.719 423.177 1.31629 443.584C1.31629 554.837 1.31629 666.749 1.31629 778.002H1958V735.212C1937.6 668.065 1859.94 650.291 1817.81 667.407C1820.45 660.166 1822.42 651.608 1822.42 643.05C1822.42 605.526 1792.15 575.245 1754.63 575.245C1740.15 575.245 1726.99 579.853 1716.46 587.094C1711.19 539.038 1670.39 502.173 1621.68 502.173C1590.75 501.515 1563.77 515.997 1546 538.38Z" fill="#FFEFC9"/>
            </g>
            <path d="M254.789 434.872L255.066 413.137L367.893 478.272L367.685 500.076L254.789 434.872Z" fill="#3F2B20"/>
            <path d="M367.686 500.076L367.893 478.272L480.789 413.137L480.512 434.872L367.686 500.076Z" fill="#895F47"/>
            <path d="M367.893 478.272L480.789 413.137L367.893 348.002L255.066 413.137L367.893 478.272Z" fill="#5E412F"/>
            <path d="M255.066 413.137L254.789 391.403L367.685 456.538L367.893 478.272L255.066 413.137Z" fill="#909A3A"/>
            <path d="M367.893 478.272L367.686 456.538L480.512 391.403L480.789 413.137L367.893 478.272Z" fill="#BEC65C"/>
            <path d="M367.685 326.198L480.512 391.403L367.685 456.537L254.789 391.403L367.685 326.198Z" fill="#D3DF7B"/>
            <path opacity="0.3" d="M367.685 434.872L330.169 434.803L255.066 391.541L311.341 358.731L405.341 413.137L367.685 434.872Z" fill="#231F20"/>
            <path d="M367.685 434.872L292.514 391.541V326.337L367.685 369.737V434.872Z" fill="#D3C6A1"/>
            <path d="M443.065 391.403L367.686 434.872V369.737L442.857 326.337L443.065 391.403Z" fill="#FFF3D2"/>
            <path d="M442.857 326.337L367.685 282.937L292.514 326.337L367.685 369.737L442.857 326.337Z" fill="#FFF9E9"/>
            <path d="M386.65 423.935L386.373 380.604L405.339 369.737V413.137L386.65 423.935Z" fill="#50535B"/>
            <path d="M389.211 385.034L402.501 377.42V387.111L389.419 394.725L389.211 385.034Z" fill="#323438"/>
            <path d="M389.211 403.031L402.501 395.417V405.108L389.419 412.722L389.211 403.031Z" fill="#323438"/>
            <path d="M311.34 358.731L348.787 380.604L348.925 402.201L311.201 380.397L311.34 358.731Z" fill="#50535B"/>
            <path d="M314.108 363.577L328.99 372.367V387.388L314.039 378.805L314.108 363.577Z" fill="#7ECECA"/>
            <path d="M330.582 373.267L330.721 388.426L346.087 397.355L346.018 382.266L330.582 373.267Z" fill="#7ECECA"/>
            <path d="M416.137 385.311L415.791 363.507L434.549 352.64V374.305L416.137 385.311Z" fill="#50535B"/>
            <path d="M418.768 380.673L418.422 365.722L432.266 358.039V372.783L418.768 380.673Z" fill="#C7EDE8"/>
            <path opacity="0.2" d="M292.514 326.337V340.803L367.685 382.958L443.065 339.073L442.857 326.337L367.685 369.737L292.514 326.337Z" fill="#231F20"/>
            <path d="M367.684 379.428L348.926 272L455.315 327.721L367.684 379.428Z" fill="#895F47"/>
            <path d="M367.684 276.015L348.926 272L455.315 327.721L367.684 276.015Z" fill="#5E412F"/>
            <path d="M367.685 379.428L348.926 272L275.9 327.721L367.685 379.428Z" fill="#5E412F"/>
            <path d="M142.654 499.591L142.931 477.857L255.758 542.992L255.55 564.796L142.654 499.591Z" fill="#3F2B20"/>
            <path d="M255.551 564.796L255.758 542.992L368.654 477.857L368.378 499.591L255.551 564.796Z" fill="#895F47"/>
            <path d="M255.758 542.992L368.654 477.857L255.758 412.722L142.932 477.857L255.758 542.992Z" fill="#5E412F"/>
            <path d="M142.931 477.857L142.654 456.122L255.55 521.257L255.758 542.992L142.931 477.857Z" fill="#909A3A"/>
            <path d="M255.758 542.992L255.551 521.257L368.378 456.122L368.654 477.857L255.758 542.992Z" fill="#BEC65C"/>
            <path d="M255.55 390.918L368.377 456.122L255.55 521.257L142.654 456.122L255.55 390.918Z" fill="#D3DF7B"/>
            <path d="M293.137 456.191L311.964 445.324L311.757 467.059L293.137 456.191Z" fill="#77A037"/>
            <path d="M311.756 467.059L311.964 445.324L330.722 456.122L311.756 467.059Z" fill="#ACE256"/>
            <path opacity="0.3" d="M255.481 499.592L222.879 488.793L248.628 473.773L274.447 488.655L255.481 499.592Z" fill="#231F20"/>
            <path d="M236.723 488.793L237 466.99L255.689 477.857L255.481 499.592L236.723 488.793Z" fill="#77A037"/>
            <path d="M255.48 499.592L274.446 488.655V466.99L255.688 477.857L255.48 499.592Z" fill="#8DC63F"/>
            <path d="M255.689 456.191L274.447 466.99L255.689 477.857L237 466.99L255.689 456.191Z" fill="#ACE256"/>
            <path opacity="0.2" d="M236.93 423.658L255.826 412.86L274.585 423.589L255.619 434.457L236.93 423.658Z" fill="#231F20"/>
            <path d="M257.614 380.272L254.846 380.257L254.607 423.657L257.376 423.672L257.614 380.272Z" fill="#3F2B20"/>
            <path d="M237.414 391.056L255.896 358.523L256.172 401.855L237.414 391.056Z" fill="#77A037"/>
            <path d="M256.173 401.855L274.862 391.056L255.896 358.523L256.173 401.855Z" fill="#ACE256"/>
            <path opacity="0.2" d="M180.379 456.261L199.276 445.462L217.965 456.191L198.999 467.059L180.379 456.261Z" fill="#231F20"/>
            <path d="M200.786 412.874L198.018 412.859L197.779 456.259L200.548 456.275L200.786 412.874Z" fill="#3C2415"/>
            <path d="M180.657 423.659L180.449 401.855L199.415 412.86V434.457L180.657 423.659Z" fill="#77A037"/>
            <path d="M199.414 434.457V412.86L218.172 401.993L218.103 423.658L199.414 434.457Z" fill="#8DC63F"/>
            <path d="M180.449 401.855L199.138 391.056L218.174 401.993L199.415 412.86L180.449 401.855Z" fill="#ACE256"/>
            <path d="M-83 499.73L-82.7231 477.995L30.1037 543.13L29.896 564.934L-83 499.73Z" fill="#3F2B20"/>
            <path d="M29.8965 564.934L30.1041 543.13L143 477.995L142.723 499.73L29.8965 564.934Z" fill="#895F47"/>
            <path d="M30.1041 543.13L143 477.995L30.1041 412.86L-82.7227 477.995L30.1041 543.13Z" fill="#5E412F"/>
            <path opacity="0.7" d="M29.896 391.056L30.1037 412.86L-82.7231 477.995L-83 456.261L29.896 391.056Z" fill="#1693A5"/>
            <path opacity="0.7" d="M29.8965 391.056L30.1041 412.86L143 478.065L142.723 456.261L29.8965 391.056Z" fill="#C7EDE8"/>
            <path opacity="0.7" d="M-82.7231 477.995L-83 456.261L29.896 521.396L30.1037 543.13L-82.7231 477.995Z" fill="#45B5C4"/>
            <path opacity="0.7" d="M30.1041 543.13L29.8965 521.396L142.723 456.261L143 477.995L30.1041 543.13Z" fill="#A0DED6"/>
            <path opacity="0.7" d="M29.896 391.056L142.723 456.261L29.896 521.396L-83 456.261L29.896 391.056Z" fill="#C7EDE8"/>
            <path d="M29.8262 564.796L30.1031 543.061L142.93 608.196L142.722 630L29.8262 564.796Z" fill="#3F2B20"/>
            <path d="M142.723 630L142.93 608.196L255.826 543.061L255.549 564.796L142.723 630Z" fill="#895F47"/>
            <path d="M142.93 608.196L255.826 543.061L142.93 477.926L30.1035 543.061L142.93 608.196Z" fill="#5E412F"/>
            <path d="M30.1031 543.061L29.8262 521.326L142.722 586.461L142.93 608.196L30.1031 543.061Z" fill="#909A3A"/>
            <path d="M142.93 608.196L142.723 586.461L255.549 521.326L255.826 543.061L142.93 608.196Z" fill="#BEC65C"/>
            <path d="M142.722 456.122L255.549 521.326L142.722 586.461L29.8262 521.326L142.722 456.122Z" fill="#D3DF7B"/>
            <path d="M1814.38 675.811L1814.64 655.517L1919.98 716.333L1919.79 736.691L1814.38 675.811Z" fill="#3F2B20"/>
            <path d="M1919.79 736.691L1919.98 716.333L2025.39 655.517L2025.14 675.811L1919.79 736.691Z" fill="#895F47"/>
            <path d="M1919.98 716.333L2025.39 655.517L1919.98 594.701L1814.64 655.517L1919.98 716.333Z" fill="#5E412F"/>
            <path d="M1814.64 655.517L1814.38 635.224L1919.79 696.04L1919.98 716.333L1814.64 655.517Z" fill="#909A3A"/>
            <path d="M1919.98 716.333L1919.79 696.04L2025.14 635.224L2025.39 655.517L1919.98 716.333Z" fill="#BEC65C"/>
            <path d="M1919.79 574.343L2025.14 635.224L1919.79 696.04L1814.38 635.224L1919.79 574.343Z" fill="#D3DF7B"/>
            <path opacity="0.3" d="M1919.79 675.811L1884.76 675.746L1814.64 635.353L1867.18 604.719L1954.95 655.517L1919.79 675.811Z" fill="#231F20"/>
            <path d="M1919.79 675.811L1849.6 635.353V574.472L1919.79 614.995V675.811Z" fill="#D3C6A1"/>
            <path d="M1990.17 635.224L1919.79 675.811V614.995L1989.98 574.472L1990.17 635.224Z" fill="#FCEBB6"/>
            <path d="M1989.98 574.472L1919.79 533.95L1849.6 574.472L1919.79 614.995L1989.98 574.472Z" fill="#FFF3D2"/>
            <path d="M1937.5 665.599L1937.24 625.142L1972.59 604.719L1972.46 645.435L1937.5 665.599Z" fill="#50535B"/>
            <path d="M1939.24 662.562L1939.05 626.176L1970.78 607.756L1970.72 644.401L1939.24 662.562Z" fill="#DADBDF"/>
            <path d="M1954.43 655.84L1954.3 615.318L1955.6 614.542V655.129L1954.43 655.84Z" fill="#50535B"/>
            <path d="M1884.76 635.224L1884.7 614.93L1902.34 625.077V645.306L1884.76 635.224Z" fill="#50535B"/>
            <path d="M1885.67 634.707L1885.54 620.359L1901.44 629.472V643.819L1885.67 634.707Z" fill="#7ECECA"/>
            <path d="M1919.73 614.995L1849.54 574.472V533.82L1919.73 574.343V614.995Z" fill="#D3C6A1"/>
            <path d="M1990.17 574.343L1919.73 614.995V574.343L1989.98 533.82L1990.17 574.343Z" fill="#FCEBB6"/>
            <path d="M1989.98 533.821L1919.79 493.298L1849.54 533.821L1919.73 574.343L1989.98 533.821Z" fill="#FFF3D2"/>
            <path d="M1902.28 604.912V584.425L1884.83 574.343L1884.57 594.701L1902.28 604.912Z" fill="#50535B"/>
            <path d="M1901.37 603.361V588.82L1885.67 579.771L1885.47 594.184L1901.37 603.361Z" fill="#7ECECA"/>
            <path d="M1954.95 594.701V574.472L1972.46 564.39V584.554L1954.95 594.701Z" fill="#50535B"/>
            <path d="M1955.85 593.15V578.867L1971.56 569.754V584.102L1955.85 593.15Z" fill="#C7EDE8"/>
            <path d="M1919.73 574.343L1849.54 533.821V493.169L1919.73 533.691V574.343Z" fill="#D3C6A1"/>
            <path d="M1990.17 533.691L1919.73 574.343V533.691L1989.98 493.169L1990.17 533.691Z" fill="#FCEBB6"/>
            <path d="M1989.98 493.169L1919.79 452.646L1849.54 493.169L1919.73 533.691L1989.98 493.169Z" fill="#FFF3D2"/>
            <path d="M1902.28 564.261V543.773L1884.83 533.691L1884.57 554.049L1902.28 564.261Z" fill="#50535B"/>
            <path d="M1901.37 562.71V548.168L1885.67 539.12L1885.47 553.532L1901.37 562.71Z" fill="#7ECECA"/>
            <path d="M1954.95 554.05V533.821L1972.46 523.739V543.903L1954.95 554.05Z" fill="#50535B"/>
            <path d="M1955.85 552.499V538.216L1971.56 529.103V543.386L1955.85 552.499Z" fill="#C7EDE8"/>
            <path d="M1884.76 493.298V473.134L1919.79 493.298V513.527L1884.76 493.298Z" fill="#D3C6A1"/>
            <path d="M1954.95 493.298V486.06L1919.79 493.298V513.527L1954.95 493.298Z" fill="#FCEBB6"/>
            <path d="M1919.79 465.572L1954.95 486.06L1919.79 493.298L1884.76 473.134L1919.79 465.572Z" fill="#FFF9E9"/>
            <path d="M1603.69 675.617L1603.95 655.323L1709.3 716.139L1709.1 736.497L1603.69 675.617Z" fill="#3F2B20"/>
            <path d="M1709.1 736.497L1709.3 716.139L1814.71 655.323L1814.45 675.617L1709.1 736.497Z" fill="#895F47"/>
            <path d="M1709.29 716.139L1814.7 655.323L1709.29 594.507L1603.95 655.323L1709.29 716.139Z" fill="#5E412F"/>
            <path d="M1603.95 655.323L1603.69 634.965L1709.1 695.846L1709.3 716.139L1603.95 655.323Z" fill="#909A3A"/>
            <path d="M1709.3 716.139L1709.1 695.846L1814.45 635.03L1814.71 655.323L1709.3 716.139Z" fill="#BEC65C"/>
            <path d="M1709.1 574.149L1814.45 635.03L1709.1 695.846L1603.69 634.965L1709.1 574.149Z" fill="#D3DF7B"/>
            <path d="M1744.26 675.488L1709.1 655.194L1674.14 675.681L1638.91 655.323L1709.1 614.801L1779.29 655.323L1744.26 675.488Z" fill="#DADBDF"/>
            <path d="M1755.92 661.371L1750.74 658.309L1750.09 659.421L1755.26 662.484L1755.92 661.371Z" fill="#50535B"/>
            <path d="M1738.47 651.261L1733.3 648.198L1732.64 649.311L1737.81 652.373L1738.47 651.261Z" fill="#50535B"/>
            <path d="M1720.75 641.177L1715.58 638.115L1714.92 639.227L1720.09 642.289L1720.75 641.177Z" fill="#50535B"/>
            <path d="M1668.11 659.425L1667.46 658.305L1662.2 661.332L1662.84 662.453L1668.11 659.425Z" fill="#50535B"/>
            <path d="M1685.82 649.283L1685.18 648.162L1679.91 651.189L1680.55 652.31L1685.82 649.283Z" fill="#50535B"/>
            <path d="M1703.28 639.157L1702.63 638.036L1697.37 641.063L1698.01 642.184L1703.28 639.157Z" fill="#50535B"/>
            <path d="M1675.36 676.393L1672.84 674.906L1709.1 653.708L1745.55 674.777L1742.97 676.263L1709.1 656.681L1675.36 676.393Z" fill="#50535B"/>
            <path d="M1778 656.099L1709.1 616.287L1640.21 656.099L1637.62 654.612L1709.1 613.314L1780.58 654.548L1778 656.099Z" fill="#50535B"/>
            <path d="M1498.35 736.368L1498.6 716.075L1603.95 776.891L1603.76 797.249L1498.35 736.368Z" fill="#3F2B20"/>
            <path d="M1603.76 797.249L1603.95 776.891L1709.36 716.075L1709.1 736.368L1603.76 797.249Z" fill="#895F47"/>
            <path d="M1603.95 776.891L1709.36 716.075L1603.95 655.259L1498.6 716.075L1603.95 776.891Z" fill="#5E412F"/>
            <path d="M1498.6 716.075L1498.35 695.781L1603.76 756.597L1603.95 776.891L1498.6 716.075Z" fill="#909A3A"/>
            <path d="M1603.95 776.891L1603.76 756.597L1709.1 695.781L1709.36 716.075L1603.95 776.891Z" fill="#BEC65C"/>
            <path d="M1603.76 634.901L1709.1 695.781L1603.76 756.597L1498.35 695.781L1603.76 634.901Z" fill="#D3DF7B"/>
            <path d="M1638.91 736.239L1603.76 715.945L1568.73 736.368L1533.57 716.075L1638.91 655.259L1673.94 675.423L1638.85 695.846L1673.94 716.075L1638.91 736.239Z" fill="#DADBDF"/>
            <path d="M1562.76 720.179L1562.12 719.058L1556.85 722.085L1557.5 723.206L1562.76 720.179Z" fill="#50535B"/>
            <path d="M1580.47 710.054L1579.83 708.933L1574.56 711.96L1575.21 713.081L1580.47 710.054Z" fill="#50535B"/>
            <path d="M1597.93 699.928L1597.29 698.807L1592.02 701.834L1592.66 702.954L1597.93 699.928Z" fill="#50535B"/>
            <path d="M1615.41 689.766L1614.77 688.646L1609.5 691.673L1610.14 692.794L1615.41 689.766Z" fill="#50535B"/>
            <path d="M1633.19 679.657L1632.55 678.537L1627.28 681.564L1627.92 682.685L1633.19 679.657Z" fill="#50535B"/>
            <path d="M1650.65 669.575L1650 668.454L1644.74 671.482L1645.38 672.602L1650.65 669.575Z" fill="#50535B"/>
            <path d="M1650.58 722.111L1645.41 719.048L1644.75 720.16L1649.92 723.223L1650.58 722.111Z" fill="#50535B"/>
            <path d="M1633.11 712.009L1627.93 708.946L1627.28 710.058L1632.45 713.121L1633.11 712.009Z" fill="#50535B"/>
            <path d="M1570.02 737.144L1567.5 735.657L1603.75 714.459L1640.27 735.528L1637.62 737.015L1603.75 717.432L1570.02 737.144Z" fill="#50535B"/>
            <path d="M1534.86 716.85L1532.28 715.299L1637.62 654.483L1640.21 655.97L1534.86 716.85Z" fill="#50535B"/>
            <path d="M1672.65 716.85L1636.26 695.846L1672.65 674.712L1675.17 676.198L1641.43 695.781L1675.17 715.364L1672.65 716.85Z" fill="#50535B"/>
            <path d="M1709.04 736.368L1709.29 716.075L1814.64 776.891L1814.45 797.249L1709.04 736.368Z" fill="#3F2B20"/>
            <path d="M1814.45 797.249L1814.64 776.891L1920.05 716.075L1919.79 736.368L1814.45 797.249Z" fill="#895F47"/>
            <path d="M1814.64 776.891L1920.05 716.075L1814.64 655.259L1709.29 716.075L1814.64 776.891Z" fill="#5E412F"/>
            <path d="M1709.29 716.075L1709.04 695.717L1814.45 756.597L1814.64 776.891L1709.29 716.075Z" fill="#909A3A"/>
            <path d="M1814.64 776.891L1814.45 756.597L1919.79 695.781L1920.05 716.075L1814.64 776.891Z" fill="#BEC65C"/>
            <path d="M1814.45 634.901L1919.79 695.781L1814.45 756.597L1709.04 695.717L1814.45 634.901Z" fill="#D3DF7B"/>
            <path d="M1744.26 675.423L1814.45 715.945L1884.7 675.488L1849.6 655.259L1814.64 675.423L1779.22 655.259L1744.26 675.423Z" fill="#DADBDF"/>
            <path d="M1808.63 691.635L1803.46 688.572L1802.8 689.685L1807.97 692.747L1808.63 691.635Z" fill="#50535B"/>
            <path d="M1790.47 682.661L1785.3 679.624L1785.94 678.525L1791.11 681.563L1790.47 682.661Z" fill="#50535B"/>
            <path d="M1772.76 672.579L1767.59 669.542L1768.23 668.443L1773.4 671.48L1772.76 672.579Z" fill="#50535B"/>
            <path d="M1826.12 689.841L1825.47 688.72L1820.21 691.748L1820.85 692.869L1826.12 689.841Z" fill="#50535B"/>
            <path d="M1843.87 679.72L1843.22 678.599L1837.96 681.627L1838.6 682.747L1843.87 679.72Z" fill="#50535B"/>
            <path d="M1861.36 669.65L1860.71 668.529L1855.45 671.557L1856.09 672.678L1861.36 669.65Z" fill="#50535B"/>
            <path d="M1814.64 676.909L1777.93 655.969L1780.51 654.483L1814.64 673.936L1848.31 654.483L1850.9 655.969L1814.64 676.909Z" fill="#50535B"/>
            <path d="M1814.44 717.432L1742.96 676.198L1745.55 674.712L1814.44 714.459L1883.4 674.712L1885.99 676.198L1814.44 717.432Z" fill="#50535B"/>
            <path d="M1603.69 797.12L1603.95 776.826L1709.3 837.642L1709.1 858L1603.69 797.12Z" fill="#3F2B20"/>
            <path d="M1709.1 858L1709.3 837.642L1814.71 776.826L1814.45 797.12L1709.1 858Z" fill="#895F47"/>
            <path d="M1709.29 837.642L1814.7 776.826L1709.29 716.01L1603.95 776.826L1709.29 837.642Z" fill="#5E412F"/>
            <path d="M1603.95 776.826L1603.69 756.468L1709.1 817.349L1709.3 837.642L1603.95 776.826Z" fill="#909A3A"/>
            <path d="M1709.3 837.642L1709.1 817.348L1814.45 756.532L1814.71 776.826L1709.3 837.642Z" fill="#BEC65C"/>
            <path d="M1709.1 695.652L1814.45 756.532L1709.1 817.348L1603.69 756.468L1709.1 695.652Z" fill="#D3DF7B"/>
            <path d="M1744.26 796.99L1779.29 776.826L1673.88 716.01L1638.91 736.175L1744.26 796.99Z" fill="#DADBDF"/>
            <path d="M1755.91 782.868L1750.74 779.806L1750.08 780.918L1755.25 783.98L1755.91 782.868Z" fill="#50535B"/>
            <path d="M1738.46 772.779L1733.29 769.716L1732.63 770.829L1737.8 773.891L1738.46 772.779Z" fill="#50535B"/>
            <path d="M1720.73 762.694L1715.56 759.632L1714.9 760.744L1720.08 763.806L1720.73 762.694Z" fill="#50535B"/>
            <path d="M1703.28 752.443L1698.11 749.38L1697.45 750.493L1702.62 753.555L1703.28 752.443Z" fill="#50535B"/>
            <path d="M1685.8 742.29L1680.62 739.228L1679.97 740.341L1685.14 743.402L1685.8 742.29Z" fill="#50535B"/>
            <path d="M1667.99 732.252L1662.82 729.19L1662.16 730.302L1667.33 733.365L1667.99 732.252Z" fill="#50535B"/>
            <path d="M1778 777.602L1672.59 716.721L1675.17 715.234L1780.52 776.115L1778 777.602Z" fill="#50535B"/>
            <path d="M1742.97 797.766L1637.62 736.95L1640.21 735.464L1745.62 796.279L1742.97 797.766Z" fill="#50535B"/>
            <path d="M1393 796.732L1393.26 776.438L1498.6 837.254L1498.41 857.612L1393 796.732Z" fill="#3F2B20"/>
            <path d="M1498.41 857.612L1498.6 837.254L1604.01 776.438L1603.76 796.732L1498.41 857.612Z" fill="#895F47"/>
            <path d="M1498.6 837.254L1604.01 776.438L1498.6 715.622L1393.26 776.438L1498.6 837.254Z" fill="#5E412F"/>
            <path d="M1393.26 776.438L1393 756.144L1498.41 816.96L1498.6 837.254L1393.26 776.438Z" fill="#909A3A"/>
            <path d="M1498.6 837.254L1498.41 816.96L1603.76 756.144L1604.01 776.438L1498.6 837.254Z" fill="#BEC65C"/>
            <path d="M1498.41 695.264L1603.76 756.144L1498.41 816.961L1393 756.144L1498.41 695.264Z" fill="#D3DF7B"/>
            <path opacity="0.3" d="M1498.41 796.732L1463.38 796.667L1393.26 756.274L1445.8 725.64L1533.57 776.438L1498.41 796.732Z" fill="#231F20"/>
            <path d="M1498.41 796.732L1428.22 756.274V492.652L1498.41 533.174V796.732Z" fill="#D3C6A1"/>
            <path d="M1568.79 756.145L1498.41 796.732V533.174L1568.79 492.522V756.145Z" fill="#FCEBB6"/>
            <path d="M1568.79 492.523L1498.6 452L1428.22 492.652L1498.41 533.174L1568.79 492.523Z" fill="#FFF3D2"/>
            <path d="M1516.12 786.52L1515.86 745.998L1551.08 725.704V766.356L1516.12 786.52Z" fill="#50535B"/>
            <path d="M1517.86 783.483L1517.67 747.097L1549.4 728.677L1549.34 765.322L1517.86 783.483Z" fill="#DADBDF"/>
            <path d="M1534.21 776.05L1532.92 776.826V736.174L1534.21 735.399V776.05Z" fill="#50535B"/>
            <path d="M1515.86 725.575L1516.12 705.476L1551.08 685.311V705.411L1515.86 725.575Z" fill="#50535B"/>
            <path d="M1515.86 722.99L1516.12 708.061L1551.08 687.896V702.826L1515.86 722.99Z" fill="#C7EDE8"/>
            <path d="M1515.86 685.505L1516.12 665.405L1551.08 645.241V665.341L1515.86 685.505Z" fill="#50535B"/>
            <path d="M1515.86 682.92L1516.12 667.991L1551.08 647.826V662.756L1515.86 682.92Z" fill="#C7EDE8"/>
            <path d="M1515.86 644.142L1516.12 624.043L1551.08 603.879V623.978L1515.86 644.142Z" fill="#50535B"/>
            <path d="M1515.86 641.557L1516.12 626.628L1551.08 606.464V621.393L1515.86 641.557Z" fill="#C7EDE8"/>
            <path d="M1515.86 604.072L1516.12 583.973L1551.08 563.808V583.908L1515.86 604.072Z" fill="#50535B"/>
            <path d="M1515.86 601.487L1516.12 586.558L1551.08 566.394V581.323L1515.86 601.487Z" fill="#C7EDE8"/>
            <path d="M1515.86 564.002L1516.12 543.903L1551.08 523.738V543.838L1515.86 564.002Z" fill="#50535B"/>
            <path d="M1515.86 561.417L1516.12 546.488L1551.08 526.324V541.253L1515.86 561.417Z" fill="#C7EDE8"/>
            <path d="M1480.44 725.575L1445.8 705.411L1445.67 685.053L1480.89 705.475L1480.44 725.575Z" fill="#50535B"/>
            <path d="M1480.44 722.99L1445.8 702.826L1445.67 687.638L1480.89 708.061L1480.44 722.99Z" fill="#7ECECA"/>
            <path d="M1480.44 685.505L1445.8 665.341L1445.67 644.983L1480.89 665.405L1480.44 685.505Z" fill="#50535B"/>
            <path d="M1480.44 682.92L1445.8 662.756L1445.67 647.568L1480.89 667.991L1480.44 682.92Z" fill="#7ECECA"/>
            <path d="M1480.44 644.142L1445.8 623.978L1445.67 603.62L1480.89 624.043L1480.44 644.142Z" fill="#50535B"/>
            <path d="M1480.44 641.557L1445.8 621.393L1445.67 606.205L1480.89 626.628L1480.44 641.557Z" fill="#7ECECA"/>
            <path d="M1480.44 604.072L1445.8 583.908L1445.67 563.55L1480.89 583.973L1480.44 604.072Z" fill="#50535B"/>
            <path d="M1480.44 601.487L1445.8 581.323L1445.67 566.135L1480.89 586.558L1480.44 601.487Z" fill="#7ECECA"/>
            <path d="M1480.44 564.002L1445.8 543.838L1445.67 523.48L1480.89 543.903L1480.44 564.002Z" fill="#50535B"/>
            <path d="M1480.44 561.417L1445.8 541.253L1445.67 526.065L1480.89 546.488L1480.44 561.417Z" fill="#7ECECA"/>
            <path d="M1463.38 492.523L1463.51 485.219L1498.41 505.578L1498.6 512.881L1463.38 492.523Z" fill="#D3C6A1"/>
            <path d="M1498.6 512.881L1498.41 505.578L1533.57 485.155L1533.83 492.523L1498.6 512.881Z" fill="#FCEBB6"/>
            <path d="M1498.6 464.926L1463.51 485.22L1498.41 505.578L1533.57 485.155L1498.6 464.926Z" fill="#FFF9E9"/>
            <path d="M1498.6 476.236L1518.64 487.74L1498.41 499.503L1478.5 487.869L1498.6 476.236Z" fill="#1693A5"/>
            <path d="M1498.6 476.236L1498.54 471.066L1474.04 485.22L1478.5 487.869L1498.6 476.236Z" fill="#A0DED6"/>
            <path d="M1523.1 485.22L1518.7 487.805L1498.6 476.236L1498.54 471.066L1523.1 485.22Z" fill="#45B5C4"/>
            <path opacity="0.5" d="M1498.6 471.066L1474.04 485.22L1498.41 499.503L1523.1 485.22L1498.6 471.066Z" fill="#C7EDE8"/>
        </g>
    </g>
    <defs>
        <clipPath id="clip0_220_4162">
            <rect width="1958" height="858" fill="white"/>
        </clipPath>
        <clipPath id="clip1_220_4162">
            <rect width="1958" height="858" fill="white"/>
        </clipPath>
    </defs>
</svg>