<svg width="1952" height="778" viewBox="0 0 1952 778" fill="none" xmlns="http://www.w3.org/2000/svg">
    <g clip-path="url(#clip0_234_4151)">
        <path opacity="0.43" fill-rule="evenodd" clip-rule="evenodd" d="M1942.2 201.441C1947.47 201.441 1952.73 201.441 1958 202.099V566.799V718.208H0V560.216V490.435V157.993C23.0353 147.46 49.3613 141.535 76.3456 141.535C163.88 141.535 237.593 203.415 255.363 286.362C281.031 256.08 319.203 236.989 361.325 236.989C383.044 236.989 404.105 242.255 422.533 251.472C437.012 165.234 512.042 99.4037 602.867 99.4037C689.742 99.4037 762.139 159.968 781.226 240.939C810.184 209.34 852.306 189.591 898.376 189.591C930.626 189.591 960.243 198.807 985.252 215.265C1017.5 91.5041 1129.39 0 1263.65 0C1409.1 0 1529.54 107.962 1548.63 248.18C1576.27 208.024 1623 181.691 1675.65 181.691C1732.91 181.691 1782.93 212.632 1809.92 259.371C1842.82 223.165 1890.21 201.441 1942.2 201.441Z" fill="#FFE7AD"/>
        <path fill-rule="evenodd" clip-rule="evenodd" d="M1958 525.212V667.406V750.352H0V625.274V592.359V473.206V352.079C9.21412 342.863 20.4027 335.621 34.2239 331.013C79.6363 315.872 128.339 340.229 143.477 385.652C145.451 392.235 146.768 398.16 147.426 404.743C200.736 392.235 255.363 419.226 277.082 468.598C303.408 438.975 341.581 420.542 383.702 420.542C411.345 420.542 437.012 428.442 458.731 441.608C469.92 406.718 502.169 381.044 541 381.044C547.582 381.044 554.163 381.702 560.745 383.019C566.01 325.088 614.055 279.665 673.289 279.665C720.017 279.665 760.165 307.972 777.277 348.129C802.286 325.747 835.194 311.922 870.734 311.922C888.504 311.922 905.616 315.214 921.412 321.139C926.677 228.318 1003.68 153.93 1097.8 153.93C1173.48 153.93 1237.98 201.327 1262.99 267.816C1288 201.327 1352.5 153.93 1428.19 153.93C1511.77 153.93 1582.2 211.86 1599.97 290.198C1632.87 292.173 1663.15 305.339 1686.18 326.405C1703.3 286.249 1743.44 257.941 1790.17 257.941C1849.41 257.941 1898.11 303.364 1902.72 361.295C1909.3 359.978 1915.22 359.32 1922.46 359.32C1934.96 359.32 1946.15 361.953 1956.68 366.561V525.212H1958Z" fill="white" fill-opacity="0.88"/>
        <path fill-rule="evenodd" clip-rule="evenodd" d="M412.003 538.38H413.977C432.405 487.032 481.109 450.167 538.368 450.167C561.403 450.167 583.122 456.092 601.55 466.625C603.525 417.91 643.672 379.729 693.033 379.729C739.762 379.729 778.593 415.277 783.858 460.7C794.389 455.434 806.235 452.8 818.74 452.8C840.459 452.8 860.204 461.358 874.683 475.841C893.769 425.81 941.814 390.262 998.415 390.262C1005.66 390.262 1012.89 390.92 1019.48 392.236C1024.74 261.893 1132.02 158.539 1262.99 158.539C1393.31 158.539 1499.27 260.576 1506.51 388.945C1517.7 385.653 1529.54 384.337 1541.39 384.337C1588.12 384.337 1629.58 408.694 1652.62 445.559C1668.41 433.051 1688.16 425.152 1709.88 425.152C1739.49 425.152 1765.82 438.976 1782.27 461.358C1802.68 430.418 1836.9 410.011 1876.39 410.011C1907.98 410.011 1936.28 423.177 1956.68 443.584C1956.68 554.837 1956.68 666.749 1956.68 778.002H0V735.212C20.4027 668.065 98.0645 650.291 140.186 667.407C137.554 660.166 135.579 651.608 135.579 643.05C135.579 605.526 165.854 575.245 203.369 575.245C217.848 575.245 231.011 579.853 241.542 587.094C246.807 539.038 287.612 502.173 336.315 502.173C367.248 501.515 394.233 515.997 412.003 538.38Z" fill="#FFEFC9"/>
        <path d="M-15 662.126L-14.6905 637.835L111.407 710.631L111.175 735L-15 662.126Z" fill="#3F2B20"/>
        <path d="M111.176 735L111.408 710.631L237.583 637.835L237.274 662.126L111.176 735Z" fill="#895F47"/>
        <path d="M111.406 710.632L237.582 637.835L111.406 565.039L-14.6914 637.835L111.406 710.632Z" fill="#5E412F"/>
        <path d="M-14.6905 637.835L-15 613.544L111.175 686.34L111.407 710.632L-14.6905 637.835Z" fill="#909A3A"/>
        <path d="M111.408 710.632L111.176 686.34L237.274 613.544L237.583 637.835L111.408 710.632Z" fill="#BEC65C"/>
        <path d="M111.175 540.67L237.273 613.544L111.175 686.34L-15 613.544L111.175 540.67Z" fill="#D3DF7B"/>
        <path opacity="0.3" d="M111.174 662.126L69.2449 662.049L-14.6914 613.699L48.2028 577.03L153.259 637.835L111.174 662.126Z" fill="#231F20"/>
        <path d="M111.176 662.126L27.1621 613.698V540.825L111.176 589.33V662.126Z" fill="#D3C6A1"/>
        <path d="M195.422 613.544L111.176 662.126V589.33L195.19 540.825L195.422 613.544Z" fill="#FCEBB6"/>
        <path d="M195.189 540.825L111.176 492.32L27.1621 540.825L111.176 589.33L195.189 540.825Z" fill="#FFF3D2"/>
        <path d="M132.372 649.903L132.062 601.476L174.379 577.03L174.224 625.767L132.372 649.903Z" fill="#50535B"/>
        <path d="M134.461 646.267L134.229 602.713L172.213 580.666L172.135 624.529L134.461 646.267Z" fill="#DADBDF"/>
        <path d="M152.641 638.222L152.486 589.717L154.034 588.789V637.371L152.641 638.222Z" fill="#50535B"/>
        <path d="M69.2473 613.544L69.1699 589.252L90.2893 601.398V625.612L69.2473 613.544Z" fill="#50535B"/>
        <path d="M70.3306 612.925L70.1758 595.75L89.2066 606.658V623.832L70.3306 612.925Z" fill="#7ECECA"/>
        <path d="M111.098 589.33L27.084 540.825V492.165L111.098 540.67V589.33Z" fill="#D3C6A1"/>
        <path d="M195.421 540.67L111.098 589.33V540.67L195.189 492.165L195.421 540.67Z" fill="#FCEBB6"/>
        <path d="M195.189 492.165L111.175 443.66L27.084 492.165L111.098 540.67L195.189 492.165Z" fill="#FFF3D2"/>
        <path d="M90.2105 577.261V552.738L69.3231 540.67L69.0137 565.039L90.2105 577.261Z" fill="#50535B"/>
        <path d="M89.1284 575.405V557.998L70.3298 547.168L70.0977 564.419L89.1284 575.405Z" fill="#7ECECA"/>
        <path d="M153.26 565.039V540.825L174.224 528.756V552.893L153.26 565.039Z" fill="#50535B"/>
        <path d="M154.344 563.182V546.085L173.142 535.177V552.351L154.344 563.182Z" fill="#C7EDE8"/>
        <path d="M111.098 540.67L27.084 492.165V443.505L111.098 492.01V540.67Z" fill="#D3C6A1"/>
        <path d="M195.421 492.01L111.098 540.67V492.01L195.189 443.505L195.421 492.01Z" fill="#FCEBB6"/>
        <path d="M195.189 443.505L111.175 395L27.084 443.505L111.098 492.01L195.189 443.505Z" fill="#FFF3D2"/>
        <path d="M90.2105 528.602V504.079L69.3231 492.01L69.0137 516.379L90.2105 528.602Z" fill="#50535B"/>
        <path d="M89.1284 526.745V509.339L70.3298 498.508L70.0977 515.76L89.1284 526.745Z" fill="#7ECECA"/>
        <path d="M153.26 516.379V492.165L174.224 480.097V504.233L153.26 516.379Z" fill="#50535B"/>
        <path d="M154.344 514.522V497.425L173.142 486.518V503.614L154.344 514.522Z" fill="#C7EDE8"/>
        <path d="M69.2461 443.659V419.523L111.176 443.659V467.873L69.2461 443.659Z" fill="#D3C6A1"/>
        <path d="M153.26 443.66V434.996L111.176 443.66V467.874L153.26 443.66Z" fill="#FCEBB6"/>
        <path d="M111.176 410.472L153.26 434.995L111.176 443.66L69.2461 419.523L111.176 410.472Z" fill="#FFF9E9"/>
        <path d="M1756 366.869L1756.33 341.159L1889.79 418.207L1889.54 443.999L1756 366.869Z" fill="#3F2B20"/>
        <path d="M1889.54 443.999L1889.79 418.207L2023.34 341.159L2023.01 366.869L1889.54 443.999Z" fill="#895F47"/>
        <path d="M1889.79 418.208L2023.34 341.16L1889.79 264.111L1756.33 341.16L1889.79 418.208Z" fill="#5E412F"/>
        <path d="M1756.33 341.159L1756 315.449L1889.54 392.498L1889.79 418.208L1756.33 341.159Z" fill="#909A3A"/>
        <path d="M1889.79 418.208L1889.54 392.498L2023.01 315.449L2023.34 341.159L1889.79 418.208Z" fill="#BEC65C"/>
        <path d="M1889.55 238.319L2023.01 315.45L1889.55 392.498L1756 315.45L1889.55 238.319Z" fill="#D3DF7B"/>
        <path d="M1934.01 315.531L1956.28 302.676L1956.03 328.386L1934.01 315.531Z" fill="#77A037"/>
        <path opacity="0.3" d="M1889.46 366.87L1850.9 354.097L1881.36 336.329L1911.9 353.933L1889.46 366.87Z" fill="#231F20"/>
        <path d="M1867.27 354.097L1867.6 328.305L1889.71 341.16L1889.46 366.87L1867.27 354.097Z" fill="#77A037"/>
        <path d="M1889.46 366.87L1911.9 353.933V328.305L1889.71 341.16L1889.46 366.87Z" fill="#8DC63F"/>
        <path d="M1889.71 315.532L1911.9 328.305L1889.71 341.16L1867.6 328.305L1889.71 315.532Z" fill="#ACE256"/>
        <path opacity="0.2" d="M1867.52 277.049L1889.87 264.275L1912.06 276.967L1889.63 289.822L1867.52 277.049Z" fill="#231F20"/>
        <path d="M1891.99 225.726L1888.71 225.708L1888.43 277.046L1891.71 277.064L1891.99 225.726Z" fill="#3F2B20"/>
        <path d="M1868.09 238.483L1889.95 200L1890.28 251.256L1868.09 238.483Z" fill="#77A037"/>
        <path d="M1890.28 251.256L1912.39 238.483L1889.95 200L1890.28 251.256Z" fill="#ACE256"/>
        <path opacity="0.2" d="M1800.62 315.614L1822.98 302.841L1845.09 315.532L1822.65 328.387L1800.62 315.614Z" fill="#231F20"/>
        <path d="M1824.77 264.292L1821.49 264.274L1821.21 315.612L1824.48 315.63L1824.77 264.292Z" fill="#3C2415"/>
        <path d="M1800.95 277.049L1800.71 251.257L1823.14 264.276V289.822L1800.95 277.049Z" fill="#77A037"/>
        <path d="M1823.14 289.822V264.275L1845.33 251.42L1845.25 277.049L1823.14 289.822Z" fill="#8DC63F"/>
        <path d="M1800.71 251.257L1822.81 238.483L1845.33 251.42L1823.14 264.275L1800.71 251.257Z" fill="#ACE256"/>
    </g>
    <defs>
        <clipPath id="clip0_234_4151">
            <rect width="1952" height="778" fill="white"/>
        </clipPath>
    </defs>
</svg>