<svg width="9904" height="503" viewBox="0 0 9904 503" fill="none" xmlns="http://www.w3.org/2000/svg">
<path opacity="0.43" d="M2297.68 114.953C2333.91 114.953 2365.55 134.528 2382.63 164.099C2436.26 101.749 2562.39 17.8738 2637.88 181.176C2654.12 162.017 2678.27 149.939 2704.92 149.939C2718.66 149.939 2731.99 153.271 2743.65 159.101C2752.81 104.54 2800.28 62.8909 2857.74 62.8909C2912.7 62.8909 2958.51 101.209 2970.58 152.438C2988.91 132.446 3015.55 119.951 3044.7 119.951C3065.11 119.951 3083.84 125.782 3099.67 136.194C3120.07 57.893 3190.86 0 3275.8 0C3367.83 0 3444.03 68.3054 3456.11 157.019C3473.59 131.613 3503.16 114.953 3536.47 114.953C3572.7 114.953 3604.34 134.528 3621.42 164.099C3660.29 120.097 3765.5 61.9084 3875.41 181.176C3891.64 162.017 3915.8 149.939 3942.45 149.939C3956.19 149.939 3969.51 153.271 3981.17 159.101C3990.33 104.54 4037.8 62.8909 4095.26 62.8909C4150.23 62.8909 4196.03 101.209 4208.11 152.438C4226.43 132.446 4253.08 119.951 4282.23 119.951C4302.63 119.951 4321.37 125.782 4337.19 136.194C4357.6 57.893 4428.38 0 4513.33 0C4605.35 0 4681.56 68.3053 4693.63 157.019C4711.12 131.613 4740.69 114.953 4774 114.953C4810.22 114.953 4841.87 134.528 4858.94 164.099C4879.76 141.192 4909.74 127.448 4942.64 127.448C4945.97 127.448 4948.67 127.632 4952 128.049V454.582L0 454.397V99.959C14.574 93.2951 31.23 89.5466 48.3024 89.5466C103.684 89.5466 150.32 128.697 161.563 181.176C177.803 162.017 201.954 149.939 228.604 149.939C242.345 149.939 255.67 153.271 267.329 159.101C276.49 104.54 323.959 62.8909 381.423 62.8909C436.387 62.8909 482.192 101.209 494.267 152.438C512.589 132.446 539.238 119.951 568.386 119.951C588.79 119.951 607.528 125.782 623.351 136.194C643.755 57.893 714.543 0 799.489 0C891.513 0 967.714 68.3054 979.79 157.019C997.279 131.613 1026.84 114.953 1060.16 114.953C1096.38 114.953 1128.03 134.528 1145.1 164.099C1183.97 120.097 1289.19 61.9084 1399.09 181.176C1415.33 162.017 1439.48 149.939 1466.13 149.939C1479.87 149.939 1493.2 153.271 1504.85 159.101C1514.02 104.54 1561.48 62.8909 1618.95 62.8909C1673.91 62.8909 1719.72 101.209 1731.79 152.438C1750.11 132.446 1776.76 119.951 1805.91 119.951C1826.32 119.951 1845.05 125.782 1860.88 136.194C1881.28 57.893 1952.07 0 2037.01 0C2129.04 0 2205.24 68.3053 2217.32 157.019C2234.8 131.613 2264.37 114.953 2297.68 114.953Z" fill="#FFE7AD"/>
<path d="M21.6528 209.426C12.9084 212.341 5.8296 216.923 0 222.754V474.734H4952V231.878C4945.34 228.962 4938.06 227.335 4930.15 227.335C4925.57 227.335 4921.82 227.752 4917.65 228.585C4914.74 191.933 4883.93 163.195 4846.45 163.195C4816.89 163.195 4791.49 181.104 4780.66 206.51C4766.09 193.183 4746.93 184.853 4726.11 183.603C4714.87 134.04 4670.31 97.3884 4617.43 97.3884C4569.54 97.3884 4528.74 127.376 4512.91 169.442C4497.09 127.376 4456.28 97.3884 4408.4 97.3884C4348.85 97.3884 4300.13 144.452 4296.8 203.178C4286.81 199.43 4275.98 197.347 4264.74 197.347C4242.25 197.347 4221.43 206.094 4205.61 220.255C4194.78 194.848 4169.38 176.939 4139.82 176.939C4102.34 176.939 4071.95 205.677 4068.61 242.329C4064.45 241.496 4060.29 241.08 4056.12 241.08C4031.55 241.08 4011.15 257.323 4004.07 279.397C3990.33 271.067 3974.09 266.069 3956.6 266.069C3929.95 266.069 3905.8 277.731 3889.15 296.474C3875.41 265.236 3840.84 248.16 3807.12 256.073C3785.31 170.911 3713.37 202.263 3680.13 228.585C3677.21 191.933 3646.4 163.195 3608.93 163.195C3579.36 163.195 3553.96 181.104 3543.13 206.51C3528.56 193.183 3509.41 184.853 3488.59 183.603C3477.34 134.04 3432.79 97.3884 3379.91 97.3884C3332.02 97.3884 3291.21 127.376 3275.39 169.442C3259.57 127.376 3218.76 97.3884 3170.87 97.3884C3111.33 97.3884 3062.61 144.452 3059.28 203.178C3049.28 199.43 3038.46 197.347 3027.21 197.347C3004.73 197.347 2983.91 206.094 2968.08 220.255C2957.26 194.848 2931.86 176.939 2902.29 176.939C2864.82 176.939 2834.42 205.677 2831.09 242.329C2826.93 241.496 2822.76 241.08 2818.6 241.08C2794.03 241.08 2773.63 257.323 2766.55 279.397C2752.81 271.067 2736.57 266.069 2719.08 266.069C2692.43 266.069 2668.28 277.731 2651.62 296.474C2637.88 265.236 2603.32 248.16 2569.59 256.073C2542.73 179.009 2472.9 205.638 2441.34 228.585C2438.42 191.933 2407.61 163.195 2370.13 163.195C2340.57 163.195 2315.17 181.104 2304.34 206.51C2289.77 193.183 2270.61 184.853 2249.79 183.603C2238.55 134.04 2194 97.3884 2141.11 97.3884C2093.23 97.3884 2052.42 127.376 2036.6 169.442C2020.77 127.376 1979.97 97.3884 1932.08 97.3884C1872.54 97.3884 1823.82 144.452 1820.49 203.178C1810.49 199.43 1799.67 197.347 1788.42 197.347C1765.94 197.347 1745.12 206.094 1729.29 220.255C1718.47 194.848 1693.07 176.939 1663.5 176.939C1626.03 176.939 1595.63 205.677 1592.3 242.329C1588.13 241.496 1583.97 241.08 1579.81 241.08C1555.24 241.08 1534.84 257.323 1527.76 279.397C1514.02 271.067 1497.78 266.069 1480.29 266.069C1453.64 266.069 1429.49 277.731 1412.83 296.474C1399.09 265.236 1364.53 248.16 1330.8 256.073C1309 170.911 1237.06 202.263 1203.81 228.585C1200.9 191.933 1170.08 163.195 1132.61 163.195C1103.04 163.195 1077.64 181.104 1066.82 206.51C1052.24 193.183 1033.09 184.853 1012.27 183.603C1001.03 134.04 956.471 97.3884 903.589 97.3884C855.703 97.3884 814.895 127.376 799.072 169.442C783.249 127.376 742.442 97.3884 694.556 97.3884C635.01 97.3884 586.292 144.452 582.96 203.178C572.967 199.43 562.14 197.347 550.898 197.347C528.412 197.347 507.592 206.094 491.769 220.255C480.942 194.848 455.542 176.939 425.978 176.939C388.501 176.939 358.104 205.677 354.773 242.329C350.609 241.496 346.445 241.08 342.281 241.08C317.713 241.08 297.31 257.323 290.231 279.397C276.49 271.067 260.25 266.069 242.761 266.069C216.112 266.069 191.961 277.731 175.305 296.474C161.563 265.236 127.002 248.16 93.2737 256.073C92.8573 251.908 92.0245 248.16 90.7753 243.995C81.1981 215.257 50.3844 199.846 21.6528 209.426Z" fill="white" fill-opacity="0.88"/>
<path d="M1372.76 339.145C1364.84 339.145 1357.35 340.466 1350.69 343.107C1314.17 275.387 1260.12 309.474 1237.66 334.983C1224.75 324.749 1207.14 317.687 1187.16 317.687C1162.17 317.687 1140.52 327.921 1127.61 343.437C1117.2 332.212 1100.55 325.28 1081.81 325.28C1068.07 325.28 1055.57 329.241 1045.58 335.514C1031.01 317.027 1004.77 304.812 975.209 304.812C967.714 304.812 960.219 305.472 953.14 307.123C948.56 242.749 881.519 191.58 799.072 191.58C716.209 191.58 648.335 243.409 645.004 308.774C640.84 308.113 636.26 307.783 631.679 307.783C595.869 307.783 565.472 325.61 553.396 350.699C544.235 343.437 531.743 339.145 518.002 339.145C510.09 339.145 502.595 340.466 495.933 343.107C492.602 320.328 468.034 302.501 438.47 302.501C407.24 302.501 381.839 321.648 380.59 346.078C368.931 340.796 355.189 337.825 340.615 337.825C304.389 337.825 273.575 356.311 261.916 382.061H260.667C249.424 370.837 232.351 363.574 212.781 363.904C181.967 363.904 156.15 382.391 152.819 406.49C146.157 402.859 137.828 400.548 128.668 400.548C104.933 400.548 85.7785 415.734 85.7785 434.551C85.7785 438.842 87.0277 443.134 88.6933 446.765C62.0436 438.182 12.9084 447.096 0 480.768V502.226H3463.93H4207.97H4952V307.797C4951.46 307.788 4950.91 307.783 4950.36 307.783C4914.55 307.783 4884.16 325.61 4872.08 350.699C4862.92 343.437 4850.43 339.145 4836.69 339.145C4828.78 339.145 4821.28 340.466 4814.62 343.107C4778.1 275.387 4724.05 309.474 4701.59 334.983C4688.68 324.749 4671.08 317.687 4651.09 317.687C4626.11 317.687 4604.45 327.921 4591.54 343.437C4581.13 332.212 4564.48 325.28 4545.74 325.28C4532 325.28 4519.51 329.241 4509.51 335.514C4494.94 317.027 4468.71 304.812 4439.14 304.812C4431.65 304.812 4424.15 305.472 4417.07 307.123C4412.49 242.749 4345.45 191.58 4263 191.58C4243.63 191.58 4225.07 194.414 4207.97 199.592C4152.36 216.364 4112.25 257.843 4108.75 307.123C4101.67 305.472 4094.17 304.812 4086.68 304.812C4057.11 304.812 4030.88 317.027 4016.3 335.514C4006.31 329.241 3993.82 325.28 3980.08 325.28C3961.34 325.28 3944.68 332.212 3934.27 343.437C3921.37 327.921 3899.71 317.687 3874.73 317.687C3854.74 317.687 3836.84 324.289 3823.93 334.523C3811.02 324.289 3793.55 317.687 3773.56 317.687C3748.58 317.687 3726.92 327.921 3714.01 343.437C3703.6 332.212 3686.95 325.28 3668.21 325.28C3654.47 325.28 3641.98 329.241 3631.98 335.514C3617.41 317.027 3591.18 304.812 3561.61 304.812C3554.12 304.812 3546.62 305.472 3539.54 307.123C3534.96 242.749 3467.92 191.58 3385.48 191.58C3302.61 191.58 3234.74 243.409 3231.41 308.774C3227.24 308.113 3222.66 307.783 3218.08 307.783C3182.27 307.783 3151.87 325.61 3139.8 350.699C3130.64 343.437 3118.15 339.145 3104.4 339.145C3096.49 339.145 3089 340.466 3082.34 343.107C3045.82 275.387 2991.77 309.474 2969.31 334.983C2956.4 324.749 2938.79 317.687 2918.81 317.687C2893.82 317.687 2872.17 327.921 2859.26 343.437C2848.85 332.212 2832.2 325.28 2813.46 325.28C2799.72 325.28 2787.23 329.241 2777.23 335.514C2762.66 317.027 2736.42 304.812 2706.86 304.812C2699.36 304.812 2691.87 305.472 2684.79 307.123C2680.21 242.749 2613.17 191.58 2530.72 191.58C2447.86 191.58 2379.99 243.409 2376.65 308.774C2372.49 308.113 2367.91 307.783 2363.33 307.783C2327.52 307.783 2297.12 325.61 2285.05 350.699C2275.89 343.437 2263.39 339.145 2249.65 339.145C2241.74 339.145 2234.25 340.466 2227.58 343.107C2224.25 320.328 2199.68 302.501 2170.12 302.501C2138.89 302.501 2113.49 321.648 2112.24 346.078C2099.33 335.844 2081.66 317.612 2055.27 315.174C2022.68 312.165 1995.27 327.921 1982.36 343.437C1971.95 332.212 1955.3 325.28 1936.56 325.28C1922.82 325.28 1910.33 329.241 1900.33 335.514C1885.76 317.027 1859.53 304.812 1829.96 304.812C1822.47 304.812 1814.97 305.472 1807.89 307.123C1803.31 242.749 1736.27 191.58 1653.83 191.58C1570.96 191.58 1503.09 243.409 1499.76 308.774C1495.59 308.113 1491.01 307.783 1486.43 307.783C1450.62 307.783 1420.22 325.61 1408.15 350.699C1398.99 343.437 1386.5 339.145 1372.76 339.145Z" fill="#FFEFC9"/>
<path opacity="0.43" d="M7606.32 114.953C7570.09 114.953 7538.45 134.528 7521.37 164.099C7467.74 101.749 7341.61 17.8738 7266.12 181.176C7249.88 162.017 7225.73 149.939 7199.08 149.939C7185.34 149.939 7172.01 153.271 7160.35 159.101C7151.19 104.54 7103.72 62.8909 7046.26 62.8909C6991.3 62.8909 6945.49 101.209 6933.42 152.438C6915.09 132.446 6888.45 119.951 6859.3 119.951C6838.89 119.951 6820.16 125.782 6804.33 136.194C6783.93 57.893 6713.14 0 6628.2 0C6536.17 0 6459.97 68.3054 6447.89 157.019C6430.41 131.613 6400.84 114.953 6367.53 114.953C6331.3 114.953 6299.66 134.528 6282.58 164.099C6243.71 120.097 6138.5 61.9084 6028.59 181.176C6012.36 162.017 5988.2 149.939 5961.55 149.939C5947.81 149.939 5934.49 153.271 5922.83 159.101C5913.67 104.54 5866.2 62.8909 5808.74 62.8909C5753.77 62.8909 5707.97 101.209 5695.89 152.438C5677.57 132.446 5650.92 119.951 5621.77 119.951C5601.37 119.951 5582.63 125.782 5566.81 136.194C5546.4 57.893 5475.62 0 5390.67 0C5298.65 0 5222.44 68.3053 5210.37 157.019C5192.88 131.613 5163.31 114.953 5130 114.953C5093.78 114.953 5062.13 134.528 5045.06 164.099C5024.24 141.192 4994.26 127.448 4961.36 127.448C4958.03 127.448 4955.33 127.632 4952 128.049V454.582L9904 454.397V99.959C9889.43 93.2951 9872.77 89.5466 9855.7 89.5466C9800.32 89.5466 9753.68 128.697 9742.44 181.176C9726.2 162.017 9702.05 149.939 9675.4 149.939C9661.66 149.939 9648.33 153.271 9636.67 159.101C9627.51 104.54 9580.04 62.8909 9522.58 62.8909C9467.61 62.8909 9421.81 101.209 9409.73 152.438C9391.41 132.446 9364.76 119.951 9335.61 119.951C9315.21 119.951 9296.47 125.782 9280.65 136.194C9260.25 57.893 9189.46 0 9104.51 0C9012.49 0 8936.29 68.3054 8924.21 157.019C8906.72 131.613 8877.16 114.953 8843.84 114.953C8807.62 114.953 8775.97 134.528 8758.9 164.099C8720.03 120.097 8614.81 61.9084 8504.91 181.176C8488.67 162.017 8464.52 149.939 8437.87 149.939C8424.13 149.939 8410.8 153.271 8399.15 159.101C8389.98 104.54 8342.52 62.8909 8285.05 62.8909C8230.09 62.8909 8184.28 101.209 8172.21 152.438C8153.89 132.446 8127.24 119.951 8098.09 119.951C8077.68 119.951 8058.95 125.782 8043.12 136.194C8022.72 57.893 7951.93 0 7866.99 0C7774.96 0 7698.76 68.3053 7686.68 157.019C7669.2 131.613 7639.63 114.953 7606.32 114.953Z" fill="#FFE7AD"/>
<path d="M9882.35 209.426C9891.09 212.341 9898.17 216.923 9904 222.754V474.734H4952V231.878C4958.66 228.962 4965.94 227.335 4973.85 227.335C4978.43 227.335 4982.18 227.752 4986.35 228.585C4989.26 191.933 5020.07 163.195 5057.55 163.195C5087.11 163.195 5112.51 181.104 5123.34 206.51C5137.91 193.183 5157.07 184.853 5177.89 183.603C5189.13 134.04 5233.69 97.3884 5286.57 97.3884C5334.46 97.3884 5375.26 127.376 5391.09 169.442C5406.91 127.376 5447.72 97.3884 5495.6 97.3884C5555.15 97.3884 5603.87 144.452 5607.2 203.178C5617.19 199.43 5628.02 197.347 5639.26 197.347C5661.75 197.347 5682.57 206.094 5698.39 220.255C5709.22 194.848 5734.62 176.939 5764.18 176.939C5801.66 176.939 5832.05 205.677 5835.39 242.329C5839.55 241.496 5843.71 241.08 5847.88 241.08C5872.45 241.08 5892.85 257.323 5899.93 279.397C5913.67 271.067 5929.91 266.069 5947.4 266.069C5974.05 266.069 5998.2 277.731 6014.85 296.474C6028.59 265.236 6063.16 248.16 6096.88 256.073C6118.69 170.911 6190.63 202.263 6223.87 228.585C6226.79 191.933 6257.6 163.195 6295.07 163.195C6324.64 163.195 6350.04 181.104 6360.87 206.51C6375.44 193.183 6394.59 184.853 6415.41 183.603C6426.66 134.04 6471.21 97.3884 6524.09 97.3884C6571.98 97.3884 6612.79 127.376 6628.61 169.442C6644.43 127.376 6685.24 97.3884 6733.13 97.3884C6792.67 97.3884 6841.39 144.452 6844.72 203.178C6854.72 199.43 6865.54 197.347 6876.79 197.347C6899.27 197.347 6920.09 206.094 6935.92 220.255C6946.74 194.848 6972.14 176.939 7001.71 176.939C7039.18 176.939 7069.58 205.677 7072.91 242.329C7077.07 241.496 7081.24 241.08 7085.4 241.08C7109.97 241.08 7130.37 257.323 7137.45 279.397C7151.19 271.067 7167.43 266.069 7184.92 266.069C7211.57 266.069 7235.72 277.731 7252.38 296.474C7266.12 265.236 7300.68 248.16 7334.41 256.073C7361.27 179.009 7431.1 205.638 7462.66 228.585C7465.58 191.933 7496.39 163.195 7533.87 163.195C7563.43 163.195 7588.83 181.104 7599.66 206.51C7614.23 193.183 7633.39 184.853 7654.21 183.603C7665.45 134.04 7710 97.3884 7762.89 97.3884C7810.77 97.3884 7851.58 127.376 7867.4 169.442C7883.23 127.376 7924.03 97.3884 7971.92 97.3884C8031.46 97.3884 8080.18 144.452 8083.51 203.178C8093.51 199.43 8104.33 197.347 8115.58 197.347C8138.06 197.347 8158.88 206.094 8174.71 220.255C8185.53 194.848 8210.93 176.939 8240.5 176.939C8277.97 176.939 8308.37 205.677 8311.7 242.329C8315.87 241.496 8320.03 241.08 8324.19 241.08C8348.76 241.08 8369.16 257.323 8376.24 279.397C8389.98 271.067 8406.22 266.069 8423.71 266.069C8450.36 266.069 8474.51 277.731 8491.17 296.474C8504.91 265.236 8539.47 248.16 8573.2 256.073C8595 170.911 8666.94 202.263 8700.19 228.585C8703.1 191.933 8733.92 163.195 8771.39 163.195C8800.96 163.195 8826.36 181.104 8837.18 206.51C8851.76 193.183 8870.91 184.853 8891.73 183.603C8902.97 134.04 8947.53 97.3884 9000.41 97.3884C9048.3 97.3884 9089.1 127.376 9104.93 169.442C9120.75 127.376 9161.56 97.3884 9209.44 97.3884C9268.99 97.3884 9317.71 144.452 9321.04 203.178C9331.03 199.43 9341.86 197.347 9353.1 197.347C9375.59 197.347 9396.41 206.094 9412.23 220.255C9423.06 194.848 9448.46 176.939 9478.02 176.939C9515.5 176.939 9545.9 205.677 9549.23 242.329C9553.39 241.496 9557.56 241.08 9561.72 241.08C9586.29 241.08 9606.69 257.323 9613.77 279.397C9627.51 271.067 9643.75 266.069 9661.24 266.069C9687.89 266.069 9712.04 277.731 9728.7 296.474C9742.44 265.236 9777 248.16 9810.73 256.073C9811.14 251.908 9811.98 248.16 9813.22 243.995C9822.8 215.257 9853.62 199.846 9882.35 209.426Z" fill="white" fill-opacity="0.88"/>
<path d="M8531.24 339.145C8539.16 339.145 8546.65 340.466 8553.31 343.107C8589.83 275.387 8643.88 309.474 8666.34 334.983C8679.25 324.749 8696.86 317.687 8716.84 317.687C8741.83 317.687 8763.48 327.921 8776.39 343.437C8786.8 332.212 8803.45 325.28 8822.19 325.28C8835.93 325.28 8848.43 329.241 8858.42 335.514C8872.99 317.027 8899.23 304.812 8928.79 304.812C8936.29 304.812 8943.78 305.472 8950.86 307.123C8955.44 242.749 9022.48 191.58 9104.93 191.58C9187.79 191.58 9255.66 243.409 9259 308.774C9263.16 308.113 9267.74 307.783 9272.32 307.783C9308.13 307.783 9338.53 325.61 9350.6 350.699C9359.76 343.437 9372.26 339.145 9386 339.145C9393.91 339.145 9401.4 340.466 9408.07 343.107C9411.4 320.328 9435.97 302.501 9465.53 302.501C9496.76 302.501 9522.16 321.648 9523.41 346.078C9535.07 340.796 9548.81 337.825 9563.38 337.825C9599.61 337.825 9630.43 356.311 9642.08 382.061H9643.33C9654.58 370.837 9671.65 363.574 9691.22 363.904C9722.03 363.904 9747.85 382.391 9751.18 406.49C9757.84 402.859 9766.17 400.548 9775.33 400.548C9799.07 400.548 9818.22 415.734 9818.22 434.551C9818.22 438.842 9816.97 443.134 9815.31 446.765C9841.96 438.182 9891.09 447.096 9904 480.768V502.226H6440.07H5696.03H4952V307.797C4952.54 307.788 4953.09 307.783 4953.64 307.783C4989.45 307.783 5019.84 325.61 5031.92 350.699C5041.08 343.437 5053.57 339.145 5067.31 339.145C5075.22 339.145 5082.72 340.466 5089.38 343.107C5125.9 275.387 5179.95 309.474 5202.41 334.983C5215.32 324.749 5232.92 317.687 5252.91 317.687C5277.89 317.687 5299.55 327.921 5312.46 343.437C5322.87 332.212 5339.52 325.28 5358.26 325.28C5372 325.28 5384.49 329.241 5394.49 335.514C5409.06 317.027 5435.29 304.812 5464.86 304.812C5472.35 304.812 5479.85 305.472 5486.93 307.123C5491.51 242.749 5558.55 191.58 5641 191.58C5660.37 191.58 5678.93 194.414 5696.03 199.592C5751.64 216.364 5791.75 257.843 5795.25 307.123C5802.33 305.472 5809.83 304.812 5817.32 304.812C5846.89 304.812 5873.12 317.027 5887.7 335.514C5897.69 329.241 5910.18 325.28 5923.92 325.28C5942.66 325.28 5959.32 332.212 5969.73 343.437C5982.63 327.921 6004.29 317.687 6029.27 317.687C6049.26 317.687 6067.16 324.289 6080.07 334.523C6092.98 324.289 6110.45 317.687 6130.44 317.687C6155.42 317.687 6177.08 327.921 6189.99 343.437C6200.4 332.212 6217.05 325.28 6235.79 325.28C6249.53 325.28 6262.02 329.241 6272.02 335.514C6286.59 317.027 6312.82 304.812 6342.39 304.812C6349.88 304.812 6357.38 305.472 6364.46 307.123C6369.04 242.749 6436.08 191.58 6518.52 191.58C6601.39 191.58 6669.26 243.409 6672.59 308.774C6676.76 308.113 6681.34 307.783 6685.92 307.783C6721.73 307.783 6752.13 325.61 6764.2 350.699C6773.36 343.437 6785.85 339.145 6799.6 339.145C6807.51 339.145 6815 340.466 6821.66 343.107C6858.18 275.387 6912.23 309.474 6934.69 334.983C6947.6 324.749 6965.21 317.687 6985.19 317.687C7010.18 317.687 7031.83 327.921 7044.74 343.437C7055.15 332.212 7071.8 325.28 7090.54 325.28C7104.28 325.28 7116.77 329.241 7126.77 335.514C7141.34 317.027 7167.58 304.812 7197.14 304.812C7204.64 304.812 7212.13 305.472 7219.21 307.123C7223.79 242.749 7290.83 191.58 7373.28 191.58C7456.14 191.58 7524.01 243.409 7527.35 308.774C7531.51 308.113 7536.09 307.783 7540.67 307.783C7576.48 307.783 7606.88 325.61 7618.95 350.699C7628.11 343.437 7640.61 339.145 7654.35 339.145C7662.26 339.145 7669.75 340.466 7676.42 343.107C7679.75 320.328 7704.32 302.501 7733.88 302.501C7765.11 302.501 7790.51 321.648 7791.76 346.078C7804.67 335.844 7822.34 317.612 7848.73 315.174C7881.32 312.165 7908.73 327.921 7921.64 343.437C7932.05 332.212 7948.7 325.28 7967.44 325.28C7981.18 325.28 7993.67 329.241 8003.67 335.514C8018.24 317.027 8044.47 304.812 8074.04 304.812C8081.53 304.812 8089.03 305.472 8096.11 307.123C8100.69 242.749 8167.73 191.58 8250.17 191.58C8333.04 191.58 8400.91 243.409 8404.24 308.774C8408.41 308.113 8412.99 307.783 8417.57 307.783C8453.38 307.783 8483.78 325.61 8495.85 350.699C8505.01 343.437 8517.5 339.145 8531.24 339.145Z" fill="#FFEFC9"/>
</svg>
