<svg width="28" height="28" viewBox="0 0 28 28" fill="none" xmlns="http://www.w3.org/2000/svg">
    <path d="M22.6008 18.1277C21.731 18.1277 20.8808 18.3856 20.1576 18.8688C19.4344 19.3521 18.8707 20.0389 18.5379 20.8425C18.205 21.646 18.1179 22.5303 18.2876 23.3833C18.4573 24.2364 18.8762 25.02 19.4912 25.635C20.1062 26.2501 20.8898 26.6689 21.7429 26.8386C22.5959 27.0083 23.4802 26.9212 24.2837 26.5883C25.0873 26.2555 25.7741 25.6918 26.2573 24.9686C26.7406 24.2454 26.9985 23.3952 26.9985 22.5254C26.9971 21.3595 26.5334 20.2417 25.7089 19.4172C24.8845 18.5928 23.7667 18.129 22.6008 18.1277ZM24.6839 22.9883H23.0637V24.6085C23.0637 24.7313 23.0149 24.849 22.9281 24.9358C22.8413 25.0226 22.7236 25.0714 22.6008 25.0714C22.478 25.0714 22.3603 25.0226 22.2735 24.9358C22.1867 24.849 22.1379 24.7313 22.1379 24.6085V22.9883H20.5177C20.3949 22.9883 20.2772 22.9395 20.1904 22.8527C20.1036 22.7659 20.0548 22.6482 20.0548 22.5254C20.0548 22.4026 20.1036 22.2849 20.1904 22.1981C20.2772 22.1112 20.3949 22.0625 20.5177 22.0625H22.1379V20.4423C22.1379 20.3195 22.1867 20.2017 22.2735 20.1149C22.3603 20.0281 22.478 19.9793 22.6008 19.9793C22.7236 19.9793 22.8413 20.0281 22.9281 20.1149C23.0149 20.2017 23.0637 20.3195 23.0637 20.4423V22.0625H24.6839C24.8067 22.0625 24.9244 22.1112 25.0112 22.1981C25.0981 22.2849 25.1468 22.4026 25.1468 22.5254C25.1468 22.6482 25.0981 22.7659 25.0112 22.8527C24.9244 22.9395 24.8067 22.9883 24.6839 22.9883Z" fill="#3F2B20"/>
    <path d="M14.0378 24.1455C11.8726 24.1497 9.76227 23.4649 8.01199 22.1904C6.26171 20.9159 4.96223 19.1176 4.30151 17.0557C3.64078 14.9938 3.65307 12.7752 4.33659 10.7208C5.02011 8.66635 6.33943 6.88259 8.10372 5.62752C9.86801 4.37246 11.9858 3.71115 14.1508 3.73925C16.3157 3.76735 18.4156 4.48341 20.1468 5.78384C21.8779 7.08428 23.1505 8.90168 23.7804 10.9732C24.4104 13.0447 24.3651 15.2629 23.6511 17.3069C24.5822 17.496 25.4455 17.9317 26.1508 18.5683C26.714 17.0978 27.0017 15.5361 26.9993 13.9614C26.9993 11.3978 26.2391 8.89183 24.8149 6.7603C23.3907 4.62877 21.3663 2.96744 18.9979 1.98641C16.6295 1.00537 14.0234 0.748688 11.5091 1.24882C8.99477 1.74894 6.68524 2.98342 4.87253 4.79614C3.05983 6.60886 1.82536 8.9184 1.32523 11.4327C0.825106 13.947 1.08179 16.5532 2.06282 18.9216C3.04385 21.29 4.70517 23.3144 6.83669 24.7386C8.96821 26.1629 11.4742 26.923 14.0378 26.923C15.6125 26.9252 17.1742 26.6374 18.6447 26.0741C18.008 25.3688 17.5723 24.5055 17.3832 23.5743C16.3078 23.9502 15.177 24.1433 14.0378 24.1455Z" fill="#3F2B20"/>
    <path d="M13.996 19.9311C12.7357 19.9335 11.5073 19.5349 10.4885 18.793C9.46964 18.0511 8.71322 17.0044 8.32862 15.8042C7.94402 14.604 7.95117 13.3125 8.34904 12.1167C8.74692 10.9208 9.51488 9.88247 10.5419 9.15191C11.5688 8.42135 12.8016 8.03641 14.0618 8.05276C15.322 8.06912 16.5444 8.48593 17.5521 9.24291C18.5597 9.99988 19.3005 11.0578 19.6672 12.2636C20.0339 13.4694 20.0075 14.7606 19.5919 15.9504C20.1339 16.0605 20.6364 16.314 21.047 16.6846C21.3748 15.8287 21.5422 14.9196 21.5409 14.003C21.5409 12.5108 21.0984 11.052 20.2693 9.81129C19.4403 8.57055 18.262 7.6035 16.8833 7.03245C15.5047 6.4614 13.9877 6.31199 12.5241 6.60311C11.0605 6.89423 9.71618 7.6128 8.66101 8.66797C7.60585 9.72314 6.88727 11.0675 6.59615 12.5311C6.30503 13.9946 6.45444 15.5116 7.02549 16.8903C7.59655 18.2689 8.56359 19.4473 9.80433 20.2763C11.0451 21.1053 12.5038 21.5478 13.996 21.5478C14.9127 21.5491 15.8217 21.3816 16.6777 21.0537C16.3071 20.6431 16.0535 20.1406 15.9434 19.5986C15.3174 19.8174 14.6592 19.9298 13.996 19.9311Z" fill="#3F2B20"/>
    <circle cx="13.9969" cy="14.003" r="4.31135" fill="#3F2B20"/>
</svg>