<svg width="81" height="81" viewBox="0 0 81 81" fill="none" xmlns="http://www.w3.org/2000/svg">
    <g filter="url(#filter0_bd_171_5244)">
        <rect x="5.69141" y="0.18457" width="70.084" height="70.084" rx="35.042" fill="white" fill-opacity="0.53" shape-rendering="crispEdges"/>
        <rect x="6.46506" y="0.958224" width="68.5366" height="68.5366" rx="34.2683" stroke="#E9ECF6" stroke-opacity="0.4" stroke-width="1.54731" shape-rendering="crispEdges"/>
        <g filter="url(#filter1_d_171_5244)">
            <rect x="15.6113" y="10.1055" width="50.242" height="50.242" rx="25.121" fill="#3F2B20"/>
            <path d="M51.7481 33.7404L36.557 24.1397C36.3011 23.9779 36.0081 23.8895 35.7083 23.8836C35.4084 23.8777 35.1124 23.9546 34.8508 24.1063C34.5892 24.258 34.3714 24.479 34.2198 24.7466C34.0682 25.0143 33.9883 25.3188 33.9883 25.629V44.8321C33.9885 45.1422 34.0686 45.4466 34.2202 45.7141C34.3719 45.9815 34.5897 46.2024 34.8512 46.354C35.1127 46.5057 35.4086 46.5826 35.7084 46.5768C36.0081 46.5711 36.301 46.483 36.557 46.3214L51.7481 36.7207C51.9949 36.5646 52.1988 36.3456 52.3403 36.0848C52.4817 35.8238 52.556 35.5297 52.556 35.2305C52.556 34.9314 52.4817 34.6373 52.3403 34.3763C52.1988 34.1154 51.9949 33.8965 51.7481 33.7404Z" fill="white"/>
        </g>
    </g>
    <defs>
        <filter id="filter0_bd_171_5244" x="-0.552437" y="-6.05927" width="82.5717" height="86.5219" filterUnits="userSpaceOnUse" color-interpolation-filters="sRGB">
            <feFlood flood-opacity="0" result="BackgroundImageFix"/>
            <feGaussianBlur in="BackgroundImageFix" stdDeviation="3.12192"/>
            <feComposite in2="SourceAlpha" operator="in" result="effect1_backgroundBlur_171_5244"/>
            <feColorMatrix in="SourceAlpha" type="matrix" values="0 0 0 0 0 0 0 0 0 0 0 0 0 0 0 0 0 0 127 0" result="hardAlpha"/>
            <feOffset dy="5.09701"/>
            <feGaussianBlur stdDeviation="2.54851"/>
            <feComposite in2="hardAlpha" operator="out"/>
            <feColorMatrix type="matrix" values="0 0 0 0 0 0 0 0 0 0 0 0 0 0 0 0 0 0 0.11 0"/>
            <feBlend mode="normal" in2="effect1_backgroundBlur_171_5244" result="effect2_dropShadow_171_5244"/>
            <feBlend mode="normal" in="SourceGraphic" in2="effect2_dropShadow_171_5244" result="shape"/>
        </filter>
        <filter id="filter1_d_171_5244" x="14.064" y="8.55816" width="53.3368" height="53.3367" filterUnits="userSpaceOnUse" color-interpolation-filters="sRGB">
            <feFlood flood-opacity="0" result="BackgroundImageFix"/>
            <feColorMatrix in="SourceAlpha" type="matrix" values="0 0 0 0 0 0 0 0 0 0 0 0 0 0 0 0 0 0 127 0" result="hardAlpha"/>
            <feMorphology radius="1.54731" operator="dilate" in="SourceAlpha" result="effect1_dropShadow_171_5244"/>
            <feOffset/>
            <feComposite in2="hardAlpha" operator="out"/>
            <feColorMatrix type="matrix" values="0 0 0 0 0.909804 0 0 0 0 0.941176 0 0 0 0 1 0 0 0 1 0"/>
            <feBlend mode="normal" in2="BackgroundImageFix" result="effect1_dropShadow_171_5244"/>
            <feBlend mode="normal" in="SourceGraphic" in2="effect1_dropShadow_171_5244" result="shape"/>
        </filter>
    </defs>
</svg>