<svg width="30" height="30" viewBox="0 0 30 30" fill="none" xmlns="http://www.w3.org/2000/svg">
    <g clip-path="url(#clip0_171_4211)">
        <path d="M18.7754 0.294922H10.5615V3.03289H18.7754V0.294922ZM13.2995 18.0917H16.0374V9.87782H13.2995V18.0917ZM24.2513 9.05643L26.3048 7.13985C25.6203 6.45536 24.9358 5.77086 24.2513 5.22327L22.3347 7.13985C20.2813 5.49707 17.5433 4.40188 14.6685 4.40188C7.82357 4.40188 2.34766 9.87782 2.34766 16.7227C2.34766 23.5677 7.82357 29.0436 14.6685 29.0436C21.5134 29.0436 26.9893 23.5677 26.9893 16.7227C26.9893 13.8479 26.031 11.1099 24.2513 9.05643ZM14.6685 26.3056C9.32945 26.3056 5.08561 22.0618 5.08561 16.7227C5.08561 11.3837 9.32945 7.13985 14.6685 7.13985C20.0075 7.13985 24.2513 11.3837 24.2513 16.7227C24.2513 22.0618 20.0075 26.3056 14.6685 26.3056Z" fill="#3F2B20"/>
    </g>
    <defs>
        <clipPath id="clip0_171_4211">
            <rect width="28.7485" height="28.7487" fill="white" transform="translate(0.294922 0.294922)"/>
        </clipPath>
    </defs>
</svg>